<?xml version="1.0" encoding="UTF-8"?>
<!DOCTYPE svg PUBLIC "-//W3C//DTD SVG 1.1//EN" "http://www.w3.org/Graphics/SVG/1.1/DTD/svg11.dtd">
<!-- Creator: CorelDRAW X8 -->
<svg xmlns="http://www.w3.org/2000/svg" xml:space="preserve" width="194.819mm" height="140mm" version="1.1" style="shape-rendering:geometricPrecision; text-rendering:geometricPrecision; image-rendering:optimizeQuality; fill-rule:evenodd; clip-rule:evenodd"
viewBox="0 0 5066 3641"
 xmlns:xlink="http://www.w3.org/1999/xlink">
 <defs>
  <style type="text/css">
   <![CDATA[
    .fil0 {fill:#BD3DBF}
   ]]>
  </style>
 </defs>
 <g id="Layer_x0020_1">
  <metadata id="CorelCorpID_0Corel-Layer"/>
  <path class="fil0" d="M4833 557l-84 0 0 -243c0,-28 -17,-55 -43,-67 -690,-325 -1480,-329 -2173,-14 -693,-315 -1483,-311 -2173,14 -26,12 -43,39 -43,67l0 243 -84 0c-128,0 -233,105 -233,233l0 2618c0,128 105,233 233,233l4600 0c129,0 233,-105 233,-233l0 -2618c0,-128 -104,-233 -233,-233zm-4367 -196l0 2695 107 -42c55,-21 172,-58 228,-72 126,-31 246,-58 377,-70 23,-3 44,-5 69,-7l141 -8c27,0 46,-2 73,-2l248 12c10,1 23,3 34,4 203,18 471,87 662,163l53 22c0,-449 0,-899 0,-1348 0,-450 2,-895 2,-1345 -60,-32 -265,-105 -332,-122 -88,-21 -156,-41 -247,-56 -22,-4 -43,-7 -65,-11l-136 -16c-51,-2 -88,-8 -144,-8 -14,0 -20,-2 -32,-2l-83 0c-12,0 -19,2 -33,2l-72 2c-47,5 -88,6 -139,13 -24,3 -45,6 -67,9 -22,3 -43,7 -64,10 -197,33 -372,90 -552,165 -10,4 -18,9 -28,12zm2142 1302c0,0 0,-1 0,-1l0 -1300c635,-285 1356,-285 1992,0l0 269c0,1 0,1 0,1 0,0 0,0 0,0l0 2424c-319,-134 -658,-201 -996,-201 -338,0 -677,67 -996,201l0 -1393zm-387 1829l-1988 0c-46,0 -84,-38 -84,-84l0 -2618c0,-46 38,-84 84,-84l84 0 0 2464 0 79c0,41 34,75 75,75l1829 0 0 168zm-1653 -317c576,-228 1213,-228 1789,0l-1789 0zm2129 317l-327 0 0 -168 327 0 0 168zm1801 -317l-1788 0c576,-228 1212,-228 1788,0zm420 233c0,46 -38,84 -85,84l-1987 0 0 -168 1829 0c41,0 74,-34 74,-75l0 -79 0 -2464 84 0c47,0 85,38 85,84l0 2618z"/>
 </g>
</svg>
