<?xml version="1.0" encoding="UTF-8"?>
<!DOCTYPE svg PUBLIC "-//W3C//DTD SVG 1.1//EN" "http://www.w3.org/Graphics/SVG/1.1/DTD/svg11.dtd">
<!-- Creator: CorelDRAW X8 -->
<svg xmlns="http://www.w3.org/2000/svg" xml:space="preserve" width="134.774mm" height="150mm" version="1.1" style="shape-rendering:geometricPrecision; text-rendering:geometricPrecision; image-rendering:optimizeQuality; fill-rule:evenodd; clip-rule:evenodd"
viewBox="0 0 3010 3350"
 xmlns:xlink="http://www.w3.org/1999/xlink">
 <defs>
  <style type="text/css">
   <![CDATA[
    .fil0 {fill:#BD3DBF}
   ]]>
  </style>
 </defs>
 <g id="Layer_x0020_1">
  <metadata id="CorelCorpID_0Corel-Layer"/>
  <g id="_2290971906928">
   <path class="fil0" d="M1844 3125c5,-9 30,-21 39,-28 38,-31 71,-73 81,-126 28,-158 -22,-360 34,-513 23,-61 58,-133 89,-186 56,-98 141,-262 181,-367 55,-140 91,-296 78,-464 -25,-319 -229,-561 -423,-673 -273,-158 -592,-152 -853,13 -233,146 -390,401 -405,691 -12,237 76,445 178,641 16,31 31,60 47,90 16,28 34,60 48,89 29,61 62,119 85,188 43,132 -2,422 33,515 18,49 50,90 92,114 28,17 21,8 21,46 1,68 22,97 75,131 13,9 29,17 45,24 133,55 326,56 456,-9 31,-16 61,-39 77,-61 24,-31 22,-70 22,-115zm-659 -518c-53,24 -79,90 -27,131 49,38 662,19 681,11 55,-23 61,-94 17,-129 -52,-40 -662,-16 -671,-13zm2 238c-52,23 -83,88 -29,130 42,35 157,19 217,19 78,0 419,12 465,-7 54,-24 60,-95 15,-129 -52,-40 -659,-17 -668,-13zm322 422c54,0 101,-2 152,-15 128,-32 127,-153 99,-153l-507 0c-26,0 -12,114 68,143 56,21 124,25 188,25zm-392 -758l775 0c10,-7 20,-51 24,-64 60,-179 259,-482 313,-683 30,-111 44,-202 33,-324 -9,-105 -35,-199 -77,-282 -27,-52 -54,-96 -89,-138 -77,-92 -158,-164 -281,-219 -100,-44 -181,-60 -303,-61 -184,-1 -338,50 -475,159 -159,128 -268,325 -286,531 -21,236 50,409 136,585 65,132 199,363 230,496z"/>
   <path class="fil0" d="M1110 1032l93 85c123,-50 123,-106 280,-117 90,-6 191,30 290,107l91 -100c-237,-209 -523,-183 -754,25z"/>
   <path class="fil0" d="M452 441c-88,75 67,182 107,222 37,36 149,184 223,141 111,-64 -68,-200 -100,-233 -43,-42 -152,-196 -230,-130z"/>
   <path class="fil0" d="M2480 436c-24,12 -277,234 -279,303 -1,71 55,90 112,61 6,-3 268,-234 276,-299 7,-68 -48,-96 -109,-65z"/>
   <path class="fil0" d="M2624 1575c163,0 414,34 384,-87 -19,-74 -142,-54 -213,-54 -58,1 -209,-13 -251,16 -69,48 -26,125 80,125z"/>
   <path class="fil0" d="M1437 102c0,50 -16,352 26,384 94,25 115,-19 115,-105l0 -294c-1,-110 -141,-127 -141,15z"/>
   <path class="fil0" d="M112 1575l279 0c151,0 152,-140 0,-140 -98,0 -339,-19 -374,32 -52,76 26,108 95,108z"/>
  </g>
 </g>
</svg>
