<?xml version="1.0" encoding="UTF-8"?>
<!DOCTYPE svg PUBLIC "-//W3C//DTD SVG 1.1//EN" "http://www.w3.org/Graphics/SVG/1.1/DTD/svg11.dtd">
<!-- Creator: CorelDRAW X8 -->
<svg xmlns="http://www.w3.org/2000/svg" xml:space="preserve" width="90mm" height="55mm" version="1.1" style="shape-rendering:geometricPrecision; text-rendering:geometricPrecision; image-rendering:optimizeQuality; fill-rule:evenodd; clip-rule:evenodd"
viewBox="0 0 4263 2605"
 xmlns:xlink="http://www.w3.org/1999/xlink">
 <defs>
  <style type="text/css">
   <![CDATA[
    .fil0 {fill:none}
    .fil1 {fill:#FEFEFE}
    .fil7 {fill:#00863F}
    .fil3 {fill:#008A5A}
    .fil4 {fill:#009550}
    .fil5 {fill:#00983E}
    .fil6 {fill:#009A37}
    .fil8 {fill:#06CBF6}
    .fil11 {fill:#1E120D}
    .fil2 {fill:#2AC64B}
    .fil10 {fill:#666565}
    .fil15 {fill:#97CC1A}
    .fil13 {fill:url(#id0)}
    .fil9 {fill:url(#id1)}
    .fil19 {fill:url(#id2)}
    .fil18 {fill:url(#id3)}
    .fil12 {fill:url(#id4)}
    .fil21 {fill:url(#id5)}
    .fil20 {fill:url(#id6)}
    .fil16 {fill:url(#id7)}
    .fil14 {fill:url(#id8)}
    .fil17 {fill:url(#id9)}
   ]]>
  </style>
  <linearGradient id="id0" gradientUnits="userSpaceOnUse" x1="1792.54" y1="1452.09" x2="1592.91" y2="958.903">
   <stop offset="0" style="stop-opacity:1; stop-color:#CB1918"/>
   <stop offset="0.388235" style="stop-opacity:1; stop-color:#A2183D"/>
   <stop offset="0.74902" style="stop-opacity:1; stop-color:#902869"/>
   <stop offset="1" style="stop-opacity:1; stop-color:#73358A"/>
  </linearGradient>
  <linearGradient id="id1" gradientUnits="userSpaceOnUse" x1="1830.98" y1="222.831" x2="2642.19" y2="247.727">
   <stop offset="0" style="stop-opacity:1; stop-color:#0288F7"/>
   <stop offset="1" style="stop-opacity:1; stop-color:#2EE2BD"/>
  </linearGradient>
  <linearGradient id="id2" gradientUnits="userSpaceOnUse" x1="2234.62" y1="1684.05" x2="1987.81" y2="1268.62">
   <stop offset="0" style="stop-opacity:1; stop-color:#E1282B"/>
   <stop offset="0.388235" style="stop-opacity:1; stop-color:#E3402A"/>
   <stop offset="0.701961" style="stop-opacity:1; stop-color:#E76226"/>
   <stop offset="1" style="stop-opacity:1; stop-color:#F19A0A"/>
  </linearGradient>
  <linearGradient id="id3" gradientUnits="userSpaceOnUse" xlink:href="#id2" x1="2276.55" y1="1659.15" x2="2029.74" y2="1243.72">
  </linearGradient>
  <linearGradient id="id4" gradientUnits="userSpaceOnUse" xlink:href="#id0" x1="1893.45" y1="1411.47" x2="1693.81" y2="917.839">
  </linearGradient>
  <linearGradient id="id5" gradientUnits="userSpaceOnUse" xlink:href="#id2" x1="2052.9" y1="1791.51" x2="1806.52" y2="1376.08">
  </linearGradient>
  <linearGradient id="id6" gradientUnits="userSpaceOnUse" xlink:href="#id2" x1="2098.76" y1="1764.87" x2="1851.95" y2="1349">
  </linearGradient>
  <linearGradient id="id7" gradientUnits="userSpaceOnUse" x1="2466.14" y1="1048.89" x2="2176.95" y2="1365.16">
   <stop offset="0" style="stop-opacity:1; stop-color:#ADD816"/>
   <stop offset="1" style="stop-opacity:1; stop-color:#DBD704"/>
  </linearGradient>
  <linearGradient id="id8" gradientUnits="userSpaceOnUse" xlink:href="#id0" x1="2069.49" y1="1340.26" x2="1869.86" y2="846.63">
  </linearGradient>
  <linearGradient id="id9" gradientUnits="userSpaceOnUse" xlink:href="#id2" x1="2260.83" y1="1668.76" x2="2014.02" y2="1252.9">
  </linearGradient>
 </defs>
 <g id="Layer_x0020_1">
  <metadata id="CorelCorpID_0Corel-Layer"/>
  <rect class="fil0" width="4263" height="2605" rx="423" ry="474"/>
  <rect class="fil1" x="829" width="2605" height="2605" rx="258" ry="474"/>
  <g id="_1954852012096">
   <path class="fil2" d="M1528 740c-22,-10 -42,-18 -58,-24 -3,-25 -5,-50 -7,-75 -1,-21 0,-42 2,-62 13,3 33,6 56,11 -2,28 -2,58 0,90 2,20 4,40 7,60l0 0zm222 131c-56,-42 -110,-74 -156,-99 -10,-58 -14,-115 -10,-169 43,9 94,21 149,37 -3,73 4,151 17,231l0 0zm584 30c0,7 -1,13 -1,20 -78,40 -155,95 -225,169 -22,23 -43,47 -62,71 -21,-26 -43,-53 -67,-80 -11,-13 -21,-24 -32,-36 -18,-119 -29,-237 -31,-348 138,49 287,116 418,204l0 0z"/>
   <path class="fil3" d="M1545 473c-12,36 -20,74 -24,117 -23,-5 -42,-8 -56,-11 2,-12 4,-25 7,-37 17,-18 41,-42 73,-69l0 0z"/>
   <path class="fil4" d="M1816 321c-41,75 -74,176 -82,311 0,2 -1,5 -1,8 -55,-16 -106,-28 -149,-37 0,-2 0,-4 0,-6 6,-71 26,-135 58,-193 49,-30 107,-59 174,-83z"/>
   <path class="fil5" d="M2334 901c-131,-88 -280,-155 -418,-204 -3,-132 7,-253 34,-353 1,-3 2,-6 3,-8 109,64 252,137 388,168 12,120 8,256 -7,397l0 0z"/>
   <path class="fil6" d="M2800 641c-3,55 -11,110 -23,165 -16,1 -34,2 -54,4 9,-43 15,-86 19,-130 12,-149 -37,-263 -92,-342 16,5 32,9 46,14 63,79 111,181 104,289zm-139 176c-43,6 -93,16 -145,31 12,-75 18,-148 13,-216 -9,-155 -51,-266 -101,-343 47,7 91,16 132,26 65,76 111,172 119,282 5,70 -2,145 -18,220z"/>
   <path class="fil7" d="M2341 504c-136,-31 -279,-104 -388,-168 5,-21 12,-39 19,-55 20,-4 41,-7 62,-9 86,-9 171,-8 253,-1 9,21 18,45 26,73 13,49 22,103 28,160l0 0z"/>
   <path class="fil8" d="M1755 199c-4,2 -150,92 -210,274 -32,27 -56,51 -73,69 39,-172 197,-312 283,-343l0 0zm92 71c-10,15 -21,32 -31,51 -67,24 -125,53 -174,83 37,-69 90,-127 149,-173 14,10 33,23 56,39l0 0z"/>
   <path class="fil9" d="M2696 352c-14,-5 -30,-9 -46,-14 -66,-94 -142,-139 -142,-139 50,18 126,74 188,153zm-136 -37c-41,-10 -85,-19 -132,-26 -83,-132 -188,-169 -193,-171 112,23 236,92 325,197zm-273 -44c-82,-7 -167,-8 -253,1 -21,2 -42,5 -62,9 60,-142 158,-163 158,-163l3 0c0,0 93,20 154,153l0 0zm-259 -153c-5,2 -99,36 -181,152 -23,-16 -42,-29 -56,-39 74,-58 158,-97 237,-113z"/>
   <polygon class="fil10" points="2132,1960 2232,1960 2269,1797 1994,1797 2031,1960 "/>
   <path class="fil11" d="M3186 2203l6 0c3,0 5,-1 6,-2 1,0 2,-2 2,-3 0,-1 -1,-2 -1,-3 -1,0 -1,-1 -2,-1 -1,-1 -3,-1 -6,-1l-5 0 0 10zm-6 18l0 -32 11 0c4,0 7,0 9,1 1,0 3,1 4,3 1,1 1,3 1,5 0,2 -1,4 -2,6 -2,1 -4,2 -7,3 1,0 2,1 3,1 1,1 3,4 4,7l4 6 -6 0 -3 -5c-2,-4 -4,-7 -5,-8 -1,0 -3,-1 -4,-1l-3 0 0 14 -6 0zm13 -41c-4,0 -8,1 -12,3 -4,2 -7,5 -9,9 -2,4 -3,8 -3,12 0,5 1,9 3,13 2,4 5,7 9,9 4,2 8,3 12,3 5,0 9,-1 13,-3 4,-2 7,-5 9,-9 2,-4 3,-8 3,-13 0,-4 -1,-8 -3,-12 -2,-4 -5,-7 -9,-9 -4,-2 -8,-3 -13,-3l0 0zm0 -5c5,0 10,1 15,4 5,2 9,6 11,11 3,4 4,9 4,14 0,6 -1,10 -4,15 -2,5 -6,9 -11,11 -4,3 -9,4 -15,4 -5,0 -10,-1 -14,-4 -5,-2 -9,-6 -11,-11 -3,-5 -4,-9 -4,-15 0,-5 1,-10 4,-14 2,-5 6,-9 11,-11 5,-3 10,-4 14,-4l0 0zm-347 302l64 2 52 -236 54 236 65 0 58 -301 -49 0 -39 248 -9 0 -55 -248 -46 0 -55 248 -7 0 -40 -248 -54 0 61 299zm-126 -119l-38 -140 -10 0 -38 140 86 0zm11 38l-107 0 -22 83 -53 0 98 -301 61 0 100 301 -54 0 -23 -83zm-370 -76l64 0c28,0 50,-22 50,-50l0 -2c0,-28 -22,-50 -50,-50l-64 0 0 102zm114 159l-69 -121 -45 0 0 121 -53 0 0 -301 127 0c48,0 88,40 88,88l0 3c0,40 -26,74 -63,85l72 125 -57 0zm-256 -163l0 25c0,55 -44,99 -98,99l-31 0 0 -222 31 0c54,0 98,44 98,98zm-85 -138l-94 0 0 301 94 0c73,0 133,-59 133,-133l0 -34c0,-74 -60,-134 -133,-134l0 0zm-140 265l-7 0c-7,0 -13,-6 -13,-13l0 -251 -53 0 0 249c0,79 78,53 78,53l-5 -38zm-156 -98l-106 0c0,0 10,-60 53,-60 44,0 53,38 53,60zm-153 21c0,81 52,109 94,118 43,8 94,-22 94,-22 0,0 -10,-18 -20,-31 -6,4 -42,30 -80,12 -38,-19 -42,-64 -42,-64l148 0c10,-101 -44,-132 -90,-132 -44,0 -104,39 -104,119l0 0zm-14 -73c0,0 4,-16 9,-42 -49,-23 -96,48 -96,48l0 -48 -42 0 0 227 48 0 0 -138c36,-63 81,-47 81,-47l0 0zm-209 73c0,43 -26,79 -59,79 -32,0 -59,-36 -59,-79 0,-44 27,-80 59,-80 33,0 59,36 59,80zm-60 -119c-60,0 -107,53 -107,119 0,65 47,118 107,118 59,0 107,-53 107,-118 0,-66 -48,-119 -107,-119zm-126 195c-25,28 -59,45 -97,45 -77,0 -139,-71 -139,-159 0,-87 62,-158 139,-158 34,0 65,14 90,37l-28 36c-16,-17 -36,-28 -59,-28 -50,0 -90,51 -90,113 0,63 40,114 90,114 24,0 47,-13 63,-32l31 32z"/>
   <path class="fil12" d="M1751 1232c20,41 38,76 54,106 27,51 53,94 80,134 8,-27 18,-56 30,-85 -21,-48 -42,-99 -62,-152 -43,-116 -81,-242 -103,-364 -56,-42 -110,-74 -156,-99 26,165 96,334 157,460z"/>
   <path class="fil13" d="M1661 1230c11,20 22,39 34,58 55,91 119,175 176,242 1,-8 3,-16 5,-25 -23,-31 -45,-64 -64,-93 -28,-43 -68,-105 -110,-181 -71,-130 -147,-302 -174,-491 -22,-10 -42,-18 -58,-24 23,169 88,336 191,514l0 0z"/>
   <path class="fil14" d="M1957 1108c7,43 15,87 25,130 0,4 1,8 2,12 18,-29 39,-59 62,-89 -21,-27 -44,-54 -67,-80 -11,-12 -21,-24 -32,-36 3,21 6,42 10,63l0 0z"/>
   <path class="fil15" d="M2723 810c-26,124 -71,239 -119,338 10,9 19,19 29,29 68,-127 116,-249 144,-371 -16,1 -34,2 -54,4zm-207 38c-9,59 -22,119 -39,179 28,26 59,54 90,84 38,-91 73,-193 94,-294 -43,6 -93,16 -145,31z"/>
   <path class="fil16" d="M2108 1090c-22,23 -43,47 -62,71 82,103 143,202 187,284 16,-62 32,-130 47,-200 10,-46 19,-91 26,-137 11,-63 20,-126 27,-187 -78,40 -155,95 -225,169l0 0zm496 58c-2,3 -3,7 -5,11 -55,109 -112,197 -148,253 -41,64 -97,139 -142,196 2,4 4,8 5,12 69,-75 171,-196 254,-332 21,-34 41,-68 59,-101 2,-3 4,-7 6,-10 -10,-10 -19,-20 -29,-29l0 0zm-127 -121l-2 8c-53,190 -133,375 -196,502 7,15 13,29 18,42 59,-70 107,-141 161,-241 29,-55 68,-130 104,-216l5 -11c-31,-30 -62,-58 -90,-84l0 0z"/>
   <path class="fil17" d="M2185 1702c42,-44 79,-84 112,-123 -5,-13 -11,-27 -18,-42 -45,90 -82,151 -94,165l0 0z"/>
   <path class="fil18" d="M2237 1700c2,-3 33,-32 77,-80 -1,-4 -3,-8 -5,-12 -39,51 -70,89 -72,92l0 0z"/>
   <path class="fil19" d="M1984 1250c51,237 120,454 120,454l55 0c0,0 35,-110 74,-259 -44,-82 -105,-181 -187,-284 -23,30 -44,60 -62,89z"/>
   <path class="fil20" d="M1885 1472c55,82 114,148 194,230 -19,-21 -91,-146 -164,-315 -12,29 -22,58 -30,85z"/>
   <path class="fil21" d="M1871 1530c83,100 152,166 155,170 -4,-5 -79,-98 -150,-195 -2,9 -4,17 -5,25z"/>
  </g>
 </g>
</svg>
