<?xml version="1.0" encoding="UTF-8"?>
<!DOCTYPE svg PUBLIC "-//W3C//DTD SVG 1.1//EN" "http://www.w3.org/Graphics/SVG/1.1/DTD/svg11.dtd">
<!-- Creator: CorelDRAW X8 -->
<svg xmlns="http://www.w3.org/2000/svg" xml:space="preserve" width="90mm" height="55mm" version="1.1" style="shape-rendering:geometricPrecision; text-rendering:geometricPrecision; image-rendering:optimizeQuality; fill-rule:evenodd; clip-rule:evenodd"
viewBox="0 0 4263 2605"
 xmlns:xlink="http://www.w3.org/1999/xlink"
 xmlns:dc="http://purl.org/dc/elements/1.1/"
 xmlns:cc="http://creativecommons.org/ns#"
 xmlns:rdf="http://www.w3.org/1999/02/22-rdf-syntax-ns#"
 xmlns:svg="http://www.w3.org/2000/svg"
 xmlns:sodipodi="http://sodipodi.sourceforge.net/DTD/sodipodi-0.dtd"
 xmlns:inkscape="http://www.inkscape.org/namespaces/inkscape"
 inkscape:version="0.91 r13725"
 sodipodi:docname="CSS3.svg">
 <defs>
  <style type="text/css">
   <![CDATA[
    .fil0 {fill:none}
    .fil1 {fill:#FEFEFE}
    .fil5 {fill:black}
    .fil2 {fill:#264DE4}
    .fil3 {fill:#2965F1}
    .fil4 {fill:#EBEBEB}
    .fil6 {fill:white}
   ]]>
  </style>
 </defs>
 <g id="Layer_x0020_1">
  <metadata id="CorelCorpID_0Corel-Layer"/>
  <rect class="fil0" width="4263" height="2605" rx="423" ry="474"/>
  <rect class="fil1" x="1066" width="2132" height="2605" rx="258" ry="579"/>
  <g id="_1954646393008">
   <sodipodi:namedview id="base" pagecolor="#ffffff" bordercolor="#666666" borderopacity="1.0" inkscape:pageopacity="0.0" inkscape:pageshadow="2" inkscape:zoom="0.35" inkscape:cx="181.367" inkscape:cy="256" inkscape:document-units="px" inkscape:current-layer="layer1" showgrid="false" fit-margin-top="0" fit-margin-left="0" fit-margin-right="0" fit-margin-bottom="0" inkscape:window-width="1366" inkscape:window-height="704" inkscape:window-x="0" inkscape:window-y="27" inkscape:window-maximized="1"/>
   <g id="layer1" inkscape:label="Calque 1" inkscape:groupmode="layer">
    <g id="g3013">
     <polygon id="polygon2989" class="fil2" points="2969,586 2816,2294 2131,2484 1447,2294 1295,586 "/>
     <polygon id="polygon2991" class="fil3" points="2686,2185 2816,725 2132,725 2132,2339 "/>
     <polygon id="polygon2993" class="fil4" points="1644,1359 1663,1569 2132,1569 2132,1359 "/>
     <polygon id="polygon2995" class="fil4" points="2132,935 2131,935 1606,935 1625,1144 2132,1144 "/>
     <polygon id="polygon2997" class="fil4" points="2132,2121 2132,1903 2131,1904 1897,1841 1882,1673 1769,1673 1672,1673 1701,2002 2131,2122 "/>
     <polygon id="path2999" class="fil5" points="1689,121 1942,121 1942,227 1795,227 1795,333 1942,333 1942,440 1689,440 " inkscape:connector-curvature="0"/>
     <polygon id="path3001" class="fil5" points="1993,121 2247,121 2247,213 2099,213 2099,232 2247,232 2247,444 1993,444 1993,347 2141,347 2141,329 1993,329 " inkscape:connector-curvature="0"/>
     <polygon id="path3003" class="fil5" points="2298,121 2552,121 2552,213 2404,213 2404,232 2552,232 2552,444 2298,444 2298,347 2445,347 2445,329 2298,329 " inkscape:connector-curvature="0"/>
     <polygon id="polygon3005" class="fil6" points="2389,1569 2365,1840 2131,1903 2131,2121 2560,2002 2564,1967 2613,1415 2618,1359 2656,935 2131,935 2131,1144 2426,1144 2407,1359 2131,1359 2131,1569 "/>
    </g>
   </g>
  </g>
 </g>
</svg>
