<?xml version="1.0" encoding="UTF-8"?>
<!DOCTYPE svg PUBLIC "-//W3C//DTD SVG 1.1//EN" "http://www.w3.org/Graphics/SVG/1.1/DTD/svg11.dtd">
<!-- Creator: CorelDRAW X8 -->
<svg xmlns="http://www.w3.org/2000/svg" xml:space="preserve" width="259.449mm" height="151.5mm" version="1.1" style="shape-rendering:geometricPrecision; text-rendering:geometricPrecision; image-rendering:optimizeQuality; fill-rule:evenodd; clip-rule:evenodd"
viewBox="0 0 6831 3989"
 xmlns:xlink="http://www.w3.org/1999/xlink">
 <defs>
  <style type="text/css">
   <![CDATA[
    .str2 {stroke:#BD3DBF;stroke-width:52.655}
    .str3 {stroke:#BD3DBF;stroke-width:2.00615}
    .str1 {stroke:#BD3DBF;stroke-width:78.9824;stroke-linejoin:round}
    .str0 {stroke:#BD3DBF;stroke-width:78.9824;stroke-linejoin:round}
    .fil0 {fill:none}
    .fil1 {fill:#BD3DBF}
   ]]>
  </style>
 </defs>
 <g id="Layer_x0020_1">
  <metadata id="CorelCorpID_0Corel-Layer"/>
  <g id="_2290971907056">
   <g>
    <path class="fil0 str0" d="M3841 1828c-141,25 -95,7 -170,8 -76,1 -209,8 -283,-4 -75,-12 -95,-28 -158,-65 -63,-36 -167,-116 -219,-154 -53,-38 -42,-38 -95,-73 -52,-35 -133,-103 -221,-137 -88,-35 -193,-61 -299,-66 -105,-6 -198,18 -324,35 -126,16 -309,44 -430,63 -122,18 -183,31 -299,49 -115,18 -271,40 -395,58 -124,18 -231,31 -350,49 -119,18 -281,43 -363,59 -82,16 -106,-3 -128,37 -22,39 12,91 34,133 23,43 53,80 97,117 43,37 47,52 162,103 115,51 406,152 525,201 119,48 97,36 190,90 15,8 29,18 42,30 49,-21 98,-41 148,-59 157,-56 298,-125 465,-129 35,0 55,45 53,108 0,8 -34,7 -33,16 24,135 38,272 80,401 8,27 72,-20 100,-18 18,0 34,11 46,24 8,8 8,21 8,32 -1,14 -3,30 -11,41 -9,13 -21,23 -35,28 -33,11 -70,5 -101,20 -14,7 -15,28 -24,40 -14,18 -27,38 -46,51 -25,19 -55,31 -84,44 -20,8 -41,12 -62,17 -51,12 -101,29 -154,33 -11,1 -22,-10 -28,-20 -6,-8 -6,-20 -5,-30 1,-8 6,-18 13,-21 29,-12 62,-10 91,-22 15,-7 54,-31 38,-33 -41,-6 -81,18 -122,21 -90,6 -180,11 -271,15 -3,5 -6,9 -10,13 -60,70 -80,115 -141,181 -61,65 -158,144 -224,211 -66,67 -127,127 -172,191 -45,65 -74,131 -96,191 -22,60 -31,125 -33,166 -3,41 -28,68 17,75 46,7 103,-21 194,-44 91,-23 237,-65 352,-96 116,-31 219,-57 340,-90 121,-32 275,-73 388,-104 114,-32 175,-48 293,-83 118,-35 295,-86 415,-126 120,-40 213,-58 304,-114 92,-55 172,-137 234,-215 62,-78 79,-154 133,-246 54,-91 143,-228 193,-301 50,-74 51,-95 108,-138 57,-44 157,-88 226,-118 69,-31 18,-20 188,-64l2167 -562 70 20c118,34 71,96 99,133 17,24 44,10 51,-13 7,-23 -27,-71 -17,-99 9,-28 45,-44 73,-34 28,10 10,75 26,93 15,18 44,14 50,-12 6,-26 -34,-76 -22,-107 12,-31 46,-49 75,-31 29,19 23,86 41,107 17,22 46,16 51,-12 6,-28 -34,-66 -17,-99 17,-34 54,-17 93,-52 38,-35 131,-102 118,-168 -13,-67 -122,-87 -170,-102 -49,-15 -69,21 -99,-1 -29,-22 -13,-70 -30,-93 -17,-22 -46,-14 -52,13 -6,26 30,80 10,107 -21,28 -72,12 -96,-11 -25,-23 -10,-80 -24,-100 -14,-20 -37,-12 -42,9 -6,21 28,67 5,87 -23,19 -47,18 -70,-5 -22,-22 -7,-58 -23,-76 -17,-18 -53,-17 -50,11 16,122 44,62 -100,190 -402,99 -1985,386 -2208,426z"/>
    <path class="fil0 str1" d="M549 2617c1,-34 67,-8 98,-21 213,-89 415,-204 630,-284 21,96 -128,156 -85,346 44,190 201,151 228,252 -232,14 -464,19 -696,35 -31,2 -75,46 -89,19 -56,-105 -90,-228 -86,-347zm770 -320c152,-55 289,-120 451,-124 35,0 55,45 53,108 0,8 -34,7 -33,16 24,135 38,272 80,401 8,27 72,-20 100,-18 18,0 34,11 46,24 8,8 8,21 8,32 -1,14 -3,30 -11,41 -9,13 -21,23 -35,28 -33,11 -70,5 -101,20 -14,7 -15,28 -24,40 -14,18 -27,38 -46,51 -25,19 -55,31 -84,44 -20,8 -41,12 -62,17 -51,12 -101,29 -154,33 -11,1 -22,-10 -28,-20 -2,-2 -3,-5 -4,-8 2,-5 3,-12 1,-21l-1 -5c2,-7 6,-14 12,-17 29,-12 62,-10 91,-22 15,-7 54,-31 38,-33 -41,-6 -81,18 -122,21 -10,1 -20,2 -30,2 -44,-204 -94,-413 -145,-610z"/>
    <path class="fil0 str2" d="M2029 2218c-5,-29 77,-48 85,-20 46,145 85,302 111,455 5,26 -69,42 -78,17 -53,-145 -92,-302 -118,-452z"/>
    <path class="fil1 str3" d="M302 1984c-31,15 214,641 247,816 34,174 74,820 98,806 17,-9 38,-420 -46,-818 -88,-413 -282,-812 -299,-804z"/>
    <path class="fil1" d="M1556 2985c-68,-103 39,-131 78,-127 39,4 67,55 64,95 -5,47 13,118 302,188l210 29 258 12c118,3 198,4 199,61 1,68 -180,46 -186,47l-452 -46c-171,-17 -411,-166 -473,-259z"/>
    <path class="fil0 str0" d="M2254 2177l180 -42c13,-3 27,5 30,18l87 376c3,13 -5,26 -18,29l-180 42c-13,3 -27,-5 -30,-18l-87 -376c-3,-13 5,-26 18,-29z"/>
    <path class="fil0 str0" d="M2611 2087l180 -42c13,-3 26,5 29,18l88 376c3,13 -5,26 -18,29l-181 42c-13,3 -26,-5 -29,-18l-87 -376c-3,-13 5,-26 18,-29z"/>
    <path class="fil1" d="M1547 2173c-27,5 163,827 183,821 61,-19 -123,-831 -183,-821z"/>
    <g>
     <path class="fil0 str0" d="M4141 2155c-363,84 -1020,235 -1090,253 -71,19 -173,-377 -90,-394l1085 -223"/>
     <path class="fil1 str3" d="M6034 1381c-25,6 43,304 62,299 57,-15 -7,-310 -62,-299z"/>
     <path class="fil1 str3" d="M5850 1417c-13,3 56,301 65,298 29,-8 -38,-303 -65,-298z"/>
     <path class="fil1 str3" d="M5668 1467c-13,2 56,300 65,297 28,-8 -38,-303 -65,-297z"/>
     <path class="fil1 str3" d="M5508 1501c-13,3 56,301 65,298 28,-8 -38,-303 -65,-298z"/>
     <path class="fil1 str3" d="M5338 1534c-12,2 56,300 66,297 28,-8 -38,-303 -66,-297z"/>
     <path class="fil1 str3" d="M5144 1553c-12,2 67,346 77,343 28,-8 -49,-348 -77,-343z"/>
     <path class="fil1 str3" d="M4990 1591c-12,2 67,346 76,344 28,-9 -48,-349 -76,-344z"/>
     <path class="fil1 str3" d="M4840 1616c-12,2 67,347 77,344 28,-9 -49,-349 -77,-344z"/>
     <path class="fil1 str3" d="M4721 1656c-13,2 67,346 76,343 28,-8 -49,-348 -76,-343z"/>
     <path class="fil1 str3" d="M4603 1690c-13,2 67,346 76,344 28,-9 -48,-349 -76,-344z"/>
     <path class="fil1 str3" d="M4480 1711c-13,3 67,347 76,344 28,-8 -49,-348 -76,-344z"/>
     <path class="fil1 str3" d="M4373 1715c-12,2 73,374 83,371 28,-9 -55,-376 -83,-371z"/>
     <path class="fil1 str3" d="M3232 1948c-13,2 79,399 88,397 28,-9 -61,-402 -88,-397z"/>
     <path class="fil1 str3" d="M4248 1737c-13,2 73,374 82,371 28,-9 -55,-376 -82,-371z"/>
     <path class="fil1 str3" d="M4115 1777c-12,2 73,374 83,371 28,-9 -55,-376 -83,-371z"/>
     <path class="fil1 str3" d="M3998 1783c-13,2 80,405 89,402 28,-8 -62,-406 -89,-402z"/>
     <path class="fil1 str3" d="M3880 1806c-12,2 81,405 90,402 28,-9 -62,-407 -90,-402z"/>
     <path class="fil1 str3" d="M3763 1824c-12,2 81,405 90,402 28,-9 -62,-407 -90,-402z"/>
     <path class="fil1 str3" d="M3666 1865c-13,2 80,405 89,402 29,-9 -62,-407 -89,-402z"/>
     <path class="fil1 str3" d="M3556 1855c-12,2 89,442 98,439 28,-9 -70,-443 -98,-439z"/>
     <path class="fil1 str3" d="M3456 1883c-13,2 89,442 98,439 28,-9 -71,-443 -98,-439z"/>
     <path class="fil1 str3" d="M3339 1901c-13,2 89,441 98,439 28,-9 -71,-443 -98,-439z"/>
     <path class="fil1 str3" d="M3114 1967c-13,2 89,442 98,439 28,-9 -71,-443 -98,-439z"/>
     <path class="fil1 str3" d="M3033 1981c-12,2 89,442 98,439 29,-9 -70,-443 -98,-439z"/>
    </g>
   </g>
   <path class="fil1" d="M4849 483l118 37 -213 228 115 37 -238 399 224 -231c16,-15 218,-222 226,-234l-98 -30c7,-12 41,-45 53,-58 18,-19 36,-38 54,-57 13,-15 102,-106 106,-115l-140 -43 233 -416c-12,7 -205,223 -220,240l-164 180c-14,16 -45,46 -56,63z"/>
   <path class="fil1" d="M4768 3270l-56 110 -189 -249 -55 107 -354 -301 189 260c13,18 183,251 193,261l47 -91c10,9 37,48 48,62 16,21 31,41 47,62 13,16 88,118 96,124l66 -131 371 299c-5,-13 -186,-239 -199,-257l-151 -191c-13,-17 -38,-52 -53,-65z"/>
   <path class="fil1" d="M675 601l-49 113 -205 -235 -48 110 -373 -278 206 247c14,17 199,239 210,249l40 -94c11,8 41,45 52,58 18,20 34,39 52,59 13,15 95,113 103,118l57 -135 390 274c-6,-12 -201,-226 -216,-243l-162 -181c-14,-16 -42,-50 -57,-62z"/>
  </g>
 </g>
</svg>
