<?xml version="1.0" encoding="UTF-8"?>
<!DOCTYPE svg PUBLIC "-//W3C//DTD SVG 1.1//EN" "http://www.w3.org/Graphics/SVG/1.1/DTD/svg11.dtd">
<!-- Creator: CorelDRAW X8 -->
<svg xmlns="http://www.w3.org/2000/svg" xml:space="preserve" width="90mm" height="55mm" version="1.1" style="shape-rendering:geometricPrecision; text-rendering:geometricPrecision; image-rendering:optimizeQuality; fill-rule:evenodd; clip-rule:evenodd"
viewBox="0 0 4263 2605"
 xmlns:xlink="http://www.w3.org/1999/xlink">
 <defs>
  <style type="text/css">
   <![CDATA[
    .fil0 {fill:none}
    .fil1 {fill:#FEFEFE}
    .fil3 {fill:#5382A1}
    .fil2 {fill:#E76F00}
   ]]>
  </style>
 </defs>
 <g id="Layer_x0020_1">
  <metadata id="CorelCorpID_0Corel-Layer"/>
  <rect class="fil0" width="4263" height="2605" rx="423" ry="474"/>
  <rect class="fil1" x="1279" width="1705" height="2605" rx="169" ry="474"/>
  <g id="_1954736670320">
   <path class="fil2" d="M2715 1986l-9 0 0 -5 24 0 0 5 -9 0 0 25 -6 0 0 -25zm48 1l-1 0 -8 24 -4 0 -9 -24 0 0 0 24 -6 0 0 -30 8 0 9 21 8 -21 8 0 0 30 -5 0 0 -24 0 0z"/>
   <g>
    <path class="fil3" d="M1916 1375c0,0 -62,36 44,48 129,15 195,13 336,-14 0,0 38,23 90,43 -318,137 -720,-7 -470,-77l0 0zm-39 -178c0,0 -70,51 37,62 137,15 246,16 434,-20 0,0 26,26 67,40 -385,113 -813,9 -538,-82l0 0zm0 0l0 0 0 0z"/>
   </g>
   <g>
    <path class="fil2" d="M2205 895c78,90 -21,172 -21,172 0,0 199,-103 108,-232 -86,-120 -151,-179 203,-385 0,0 -556,139 -290,445l0 0zm0 0l0 0 0 0z"/>
   </g>
   <g>
    <path class="fil3" d="M2625 1506c0,0 46,38 -50,67 -184,56 -764,73 -926,3 -58,-26 51,-61 85,-68 36,-8 56,-6 56,-6 -64,-46 -416,89 -179,128 649,105 1182,-48 1014,-124l0 0zm-679 -493c0,0 -296,70 -105,95 81,11 241,9 391,-4 122,-10 245,-32 245,-32 0,0 -43,18 -75,40 -299,78 -879,42 -712,-39 141,-68 256,-60 256,-60l0 0zm529 296c305,-159 164,-311 66,-290 -24,5 -35,9 -35,9 0,0 9,-14 26,-20 195,-69 344,202 -63,309 0,0 5,-5 6,-8l0 0zm0 0l0 0 0 0z"/>
   </g>
   <g>
    <path class="fil2" d="M2292 118c0,0 168,169 -160,429 -264,208 -61,327 -1,463 -154,-139 -266,-262 -191,-375 112,-167 420,-248 352,-517l0 0zm0 0l0 0 0 0z"/>
   </g>
   <g>
    <path class="fil3" d="M1976 1738c292,19 741,-11 752,-149 0,0 -20,53 -242,94 -249,47 -557,42 -740,12 0,0 37,31 230,43l0 0zm0 0l0 0 0 0z"/>
   </g>
   <g>
    <path class="fil2" d="M1928 2267c-28,24 -57,37 -83,37 -37,0 -58,-22 -58,-58 0,-39 22,-67 109,-67l32 0 0 88 0 0zm76 86l0 -266c0,-68 -39,-113 -132,-113 -55,0 -103,13 -141,31l11 47c30,-12 70,-22 109,-22 54,0 77,22 77,66l0 34 -27 0c-131,0 -190,51 -190,127 0,66 39,103 112,103 47,0 82,-19 115,-48l6 41 60 0 0 0zm254 0l-95 0 -114 -372 83 0 71 228 15 69c36,-99 62,-200 74,-297l81 0c-22,122 -60,257 -115,372l0 0zm364 -86c-27,24 -56,37 -83,37 -37,0 -57,-22 -57,-58 0,-39 22,-67 108,-67l32 0 0 88 0 0zm77 86l0 -266c0,-68 -39,-113 -133,-113 -54,0 -102,13 -141,31l11 47c31,-12 71,-22 109,-22 54,0 77,22 77,66l0 34 -27 0c-130,0 -189,51 -189,127 0,66 39,103 112,103 47,0 82,-19 115,-48l6 41 60 0 0 0zm-1071 63c-22,32 -57,57 -96,71l-37 -44c29,-15 54,-40 66,-62 10,-20 14,-46 14,-108l0 -425 81 0 0 419c0,83 -7,116 -28,149z"/>
   </g>
  </g>
 </g>
</svg>
