<?xml version="1.0" encoding="UTF-8"?>
<!DOCTYPE svg PUBLIC "-//W3C//DTD SVG 1.1//EN" "http://www.w3.org/Graphics/SVG/1.1/DTD/svg11.dtd">
<!-- Creator: CorelDRAW X8 -->
<svg xmlns="http://www.w3.org/2000/svg" xml:space="preserve" width="90mm" height="55mm" version="1.1" style="shape-rendering:geometricPrecision; text-rendering:geometricPrecision; image-rendering:optimizeQuality; fill-rule:evenodd; clip-rule:evenodd"
viewBox="0 0 4263 2605"
 xmlns:xlink="http://www.w3.org/1999/xlink"
 xmlns:dc="http://purl.org/dc/elements/1.1/"
 xmlns:cc="http://creativecommons.org/ns#"
 xmlns:rdf="http://www.w3.org/1999/02/22-rdf-syntax-ns#"
 xmlns:svg="http://www.w3.org/2000/svg"
 xmlns:sodipodi="http://sodipodi.sourceforge.net/DTD/sodipodi-0.dtd"
 xmlns:inkscape="http://www.inkscape.org/namespaces/inkscape"
 inkscape:version="0.48.4 r9939"
 sodipodi:docname="javascript.svg">
 <defs>
  <style type="text/css">
   <![CDATA[
    .fil0 {fill:none}
    .fil1 {fill:#FEFEFE}
    .fil3 {fill:#131313}
    .fil4 {fill:#D6BA32}
    .fil6 {fill:#EBEBEB}
    .fil5 {fill:#FFDA3E}
    .fil2 {fill:#101010;fill-opacity:0.850980}
   ]]>
  </style>
 </defs>
 <g id="Layer_x0020_1">
  <metadata id="CorelCorpID_0Corel-Layer"/>
  <rect class="fil0" width="4263" height="2605" rx="423" ry="474"/>
  <rect class="fil1" x="829" width="2605" height="2605" rx="258" ry="474"/>
  <g id="_1954850788448">
   <sodipodi:namedview id="base" pagecolor="#ffffff" bordercolor="#666666" borderopacity="1.0" inkscape:pageopacity="0.0" inkscape:pageshadow="2" inkscape:zoom="0.77995601" inkscape:cx="50.16802" inkscape:cy="19.624571" inkscape:document-units="px" inkscape:current-layer="layer1" showgrid="false" inkscape:window-width="1026" inkscape:window-height="764" inkscape:window-x="220" inkscape:window-y="220" inkscape:window-maximized="0" fit-margin-top="0" fit-margin-left="0" fit-margin-right="0" fit-margin-bottom="0"/>
   <g id="layer1" inkscape:label="Layer 1" inkscape:groupmode="layer">
    <g id="g8487">
     <g id="g3652">
      <path id="path3654" class="fil2" d="M2680 119c26,0 53,-1 79,-1 1,15 1,44 1,59 -27,0 -54,-1 -80,-1 0,-14 0,-42 0,-57l0 0z" inkscape:connector-curvature="0"/>
     </g>
     <path id="path3664" class="fil3" d="M1077 131c48,0 97,1 145,1 -4,86 13,176 -11,260 -32,60 -110,49 -167,50 -2,-20 -4,-39 -6,-58 32,-2 67,4 97,-13 20,-60 11,-124 6,-185 -16,0 -49,1 -66,1 1,-14 2,-42 2,-56l0 0z" inkscape:connector-curvature="0"/>
     <path id="path3666" class="fil3" d="M2043 155c57,-44 132,-26 195,-9 0,17 0,50 0,67 -49,-20 -142,-63 -155,18 47,14 95,22 138,48 44,36 32,119 -20,144 -58,34 -128,15 -189,3 -4,-26 -8,-51 -11,-77 52,23 157,77 173,-11 -52,-19 -117,-22 -155,-67 -17,-38 -14,-92 24,-116l0 0z" inkscape:connector-curvature="0"/>
     <path id="path3668" class="fil3" d="M3081 142c22,0 44,0 66,0 1,21 1,42 2,63 17,1 51,1 68,1 1,13 1,39 1,52 -17,-1 -51,-1 -69,-1 1,43 -10,90 12,129 16,2 48,5 64,7 -1,79 -91,43 -139,30 -4,-48 -6,-96 -6,-144 -13,-17 -25,-35 -37,-52 9,-8 28,-25 37,-34 0,-13 0,-38 1,-51l0 0z" inkscape:connector-curvature="0"/>
     <g>
      <path id="path3670" class="fil3" d="M1281 208c61,-3 147,-26 185,37 14,63 5,128 7,192 -27,-3 -55,-5 -82,-8 -31,3 -67,26 -96,5 -48,-23 -49,-107 2,-127 36,-15 76,-18 114,-27 -36,-38 -88,-23 -133,-18 0,-14 2,-41 3,-54l0 0zm60 129c-2,18 -4,36 -6,55 21,-2 42,-3 63,-4 1,-19 3,-39 5,-59 -21,3 -42,5 -62,8z" inkscape:connector-curvature="0"/>
     </g>
     <path id="path3672" class="fil3" d="M1501 201c18,4 54,11 72,15 19,43 32,89 51,133 15,-47 29,-95 43,-142 18,0 54,-1 72,-1 -25,80 -54,160 -85,238 -25,-3 -50,-8 -73,-15 -34,-73 -57,-151 -80,-228l0 0z" inkscape:connector-curvature="0"/>
     <g>
      <path id="path3674" class="fil3" d="M1763 261c5,-18 11,-36 18,-53 58,-8 137,-21 176,34 14,65 6,132 7,198 -28,-4 -55,-8 -82,-12 -49,26 -131,17 -130,-52 -10,-82 93,-84 149,-94 -34,-45 -92,-22 -138,-21l0 0zm68 77c-2,17 -4,34 -6,51 20,1 41,1 62,2 2,-21 4,-42 6,-62 -21,3 -42,6 -62,9l0 0z" inkscape:connector-curvature="0"/>
     </g>
     <path id="path3676" class="fil3" d="M2265 322c-6,-102 124,-155 201,-101 2,15 6,44 7,58 -35,-11 -72,-36 -110,-19 -41,38 -32,137 36,131 19,-6 57,-18 76,-24 -3,16 -10,48 -13,64 -81,38 -204,-7 -197,-108l0 -1z" inkscape:connector-curvature="0"/>
     <path id="path3678" class="fil3" d="M2505 201c28,7 56,15 85,23 21,-8 42,-16 64,-23 1,18 3,54 4,72 -27,1 -54,2 -80,4 -2,54 -3,107 -3,161 -18,0 -53,0 -71,1 -1,-80 -1,-159 1,-238l0 0z" inkscape:connector-curvature="0"/>
     <g>
      <path id="path3680" class="fil3" d="M2810 206c51,11 104,8 155,-3 81,17 83,132 52,192 -25,52 -88,47 -136,44 0,27 1,55 1,82 -18,0 -54,-1 -73,-1 0,-105 0,-210 1,-314l0 0zm73 55c-1,43 -1,87 -1,131 23,-6 53,-2 71,-22 13,-35 3,-74 0,-111 -23,1 -47,1 -70,2l0 0z" inkscape:connector-curvature="0"/>
     </g>
     <g id="g3688">
      <path id="path3690" class="fil3" d="M2687 206c16,0 50,0 66,0 1,78 1,155 0,232 -16,0 -50,0 -66,0 -2,-77 -2,-154 0,-232z" inkscape:connector-curvature="0"/>
     </g>
     <g id="g3768">
      <g>
       <path id="path3770" class="fil4" d="M1295 589c187,-8 374,2 561,-1 207,-6 413,-1 620,0 164,0 328,-1 492,0 -52,569 -104,1138 -151,1708 -220,62 -440,124 -660,186 -28,12 -57,1 -84,-7 -209,-60 -417,-119 -627,-177 -54,-569 -105,-1139 -151,-1709l0 0zm840 149c-8,280 -1,561 -4,842 2,256 -3,513 3,770 185,-44 367,-97 549,-150 46,-487 91,-975 129,-1462 -226,-3 -452,0 -677,0l0 0zm-235 1096c-109,-30 -216,-64 -326,-88 -3,66 -2,131 6,196 161,39 318,91 480,129 1,-372 -1,-743 0,-1115 -52,-1 -105,-2 -157,-3 -6,293 -1,587 -3,881l0 0z" inkscape:connector-curvature="0"/>
      </g>
     </g>
     <g id="g3796">
      <g>
       <path id="path3798" class="fil5" d="M2135 738c225,0 451,-3 677,0 -38,487 -83,975 -129,1462 -182,53 -364,106 -549,150 -6,-257 -1,-514 -3,-770 3,-281 -4,-562 4,-842l0 0zm63 218c1,241 1,483 0,725 110,-18 220,-38 330,-59 -1,57 -4,113 -6,169 -107,29 -214,58 -322,85 -2,65 -2,130 -1,195 135,-31 269,-69 404,-103 17,-8 49,-7 48,-33 16,-174 26,-349 42,-523 -112,10 -222,28 -334,36 -1,-99 -1,-197 0,-296 118,0 235,0 353,0 7,-66 14,-132 19,-198 -178,1 -356,-1 -533,2l0 0z" inkscape:connector-curvature="0"/>
      </g>
     </g>
     <path id="path3806" class="fil6" d="M1900 1834c2,-294 -3,-588 3,-881 52,1 105,2 157,3 -1,372 1,743 0,1115 -162,-38 -319,-90 -480,-129 -8,-65 -9,-130 -6,-196 110,24 217,58 326,88l0 0z" inkscape:connector-curvature="0"/>
    </g>
   </g>
  </g>
 </g>
</svg>
