<?xml version="1.0" encoding="UTF-8" standalone="no"?>
<!-- Created with Inkscape (http://www.inkscape.org/) -->

<svg
   width="93.68029mm"
   height="35.965912mm"
   viewBox="0 0 93.68029 35.965912"
   version="1.1"
   id="svg5"
   xml:space="preserve"
   xmlns="http://www.w3.org/2000/svg"
   xmlns:svg="http://www.w3.org/2000/svg"><defs
     id="defs2" /><g
     id="layer6"
     style="display:inline"
     transform="translate(-184.83045,-319.4953)"><path
       style="color:#000000;font-size:17.6389px;font-family:'Cooper Black';-inkscape-font-specification:'Cooper Black, ';display:inline;fill:#110e2c;fill-opacity:1;stroke:#bd3dbf;stroke-width:1.42965;stroke-linecap:butt;stroke-dasharray:none;stroke-dashoffset:22.6772;stroke-opacity:1;paint-order:stroke fill markers"
       d="m 202.88189,320.21149 c -0.10849,5e-4 -0.21851,0.002 -0.33148,0.002 -0.51924,0 -1.00131,0.047 -1.51157,0.11525 -0.49933,0.0619 -0.96603,0.14048 -1.49138,0.29059 -0.79859,0.2203 -1.68904,0.69037 -2.35823,1.40914 l -0.0241,0.0261 -0.0246,0.0261 c -0.65115,0.72628 -1.40314,2.01387 -1.18552,3.07141 0.21763,1.05753 1.37833,2.44379 1.25101,5.39864 -0.0242,0.54973 -0.0454,0.74769 -0.069,1.08701 -0.0105,0.0104 -0.006,1.7e-4 -0.0168,0.0109 -1.11408,1.11405 -1.21556,2.32725 -1.21556,3.02511 0,0.34202 0.0638,0.69149 0.17238,1.03628 -0.56831,-0.14131 -1.14195,-0.26054 -1.76965,-0.26054 -2.05437,0 -4.18068,0.69688 -5.78772,2.03464 -0.8,0.65579 -1.48782,1.50287 -1.95041,2.44787 -0.45833,0.93165 -0.72796,2.01142 -0.72796,3.08127 0,0.60681 0.26045,1.16852 0.42801,1.75143 -0.53176,0.90412 -0.72403,1.79664 -0.72403,2.45181 0,1.03163 0.19582,2.04414 0.52849,2.98965 l 0.008,0.0182 0.008,0.0207 c 0.34388,0.94347 0.68198,2.00971 2.17993,3.00836 l 0.0187,0.0109 0.0168,0.0113 c 1.07414,0.69903 1.94626,0.90121 2.95075,1.1205 l 0.0109,0.004 0.0132,0.002 c 1.00377,0.21207 2.00609,0.32951 3.00443,0.32951 1.62475,0 3.26626,-0.31604 4.72484,-1.04023 1.19901,0.77769 2.5529,1.04072 3.7639,1.04072 0.74387,0 1.50626,-0.14496 2.23757,-0.39107 0.58936,0.19623 1.19231,0.39107 1.74208,0.39107 1.12544,0 2.2727,-0.33941 3.2039,-0.88262 0.28339,-0.16386 0.5612,-0.35353 0.82646,-0.56641 0.84399,0.87416 2.26351,1.46331 3.37481,1.46331 1.45404,0 2.80187,-0.80415 3.52602,-1.58003 l 0.0148,-0.0152 0.0128,-0.0148 c 0.0987,-0.10809 0.18889,-0.21292 0.27335,-0.31572 1.53957,1.29181 3.58582,1.91102 5.51437,1.91102 1.80028,0 3.62307,-0.51854 5.15924,-1.47365 1.26391,1.00707 2.91248,1.47413 4.37219,1.47413 1.07242,0 2.17888,-0.22046 3.20292,-0.64274 1.52692,0.49816 2.55368,0.63767 4.01256,0.64277 0.9449,0 2.73258,-0.18604 3.66253,-0.56739 0.19182,0.0882 0.38873,0.16388 0.58857,0.22263 l 0.0182,0.006 0.0173,0.006 c 1.39732,0.39592 1.97134,0.28271 3.17387,0.28271 1.16205,0 2.11267,0.021 3.47725,-0.55064 0.008,-0.003 0.0145,-0.0174 0.0222,-0.0207 0.52617,0.19699 1.06652,0.39032 1.54112,0.39845 l 0.034,0.002 h 2.69168 c 0.43627,0 0.91813,-0.0373 1.42242,-0.15466 1.03035,0.25882 2.01416,0.31867 3.11771,0.31867 0.94901,0 1.80705,-0.0258 2.78673,-0.31572 0.95266,0.30387 1.75193,0.32212 2.61336,0.32212 1.02755,0 1.92012,-0.0884 2.96159,-0.38516 1.04011,0.355 1.79633,0.37777 2.64537,0.37777 1.27369,0 2.15341,0.0401 3.50681,-0.40535 0.67113,-0.22087 1.49214,-0.6222 2.18732,-1.43179 0.69519,-0.80958 1.0816,-2.00418 1.0816,-2.94532 0,-0.63874 -0.26892,-1.50844 -0.76145,-2.31144 -0.48894,-2.03034 -0.32335,-3.94901 -1.12051,-5.84189 -0.41646,-0.66157 -0.90871,-1.26115 -1.47414,-1.68298 l -0.0113,-0.01 -0.0128,-0.01 c -1.1767,-0.86291 -2.67322,-1.27911 -4.0284,-1.27911 l -0.16818,5e-4 c -0.5273,0 -0.90978,0.25375 -1.46061,0.41125 -3.02878,0.37248 -3.66517,-0.52491 -4.20128,-1.19093 1.3872,-1.06758 2.4853,-3.05211 2.4853,-4.91987 0,-0.6537 -0.17644,-1.34032 -0.4152,-2.00115 0.23152,-0.56925 0.37432,-1.17177 0.37432,-1.70908 0,-0.96826 -0.2408,-1.68254 -0.50485,-2.29864 -0.26367,-0.6153 -0.6174,-1.19989 -1.03874,-1.72385 -1.29581,-1.06431 -2.15265,-1.93982 -3.7117,-1.90806 -0.0105,-7e-5 -0.0156,-0.008 -0.0261,-0.008 v -4.9e-4 c -0.0174,0 -0.0202,0.008 -0.0375,0.008 h -2.47546 c -0.98944,0 -2.05455,0.24558 -3.02561,0.70234 -0.83159,-0.47342 -1.74064,-0.64471 -2.40847,-0.64471 -1.15848,0 -2.31572,0.18088 -3.46395,0.43194 -0.16188,-0.0689 -0.33104,-0.21659 -0.48613,-0.26103 -1.12338,-0.48799 -2.54556,-0.4772 -4.60712,0.19405 -0.23222,0.042 -0.46869,0.0256 -0.69988,0.0763 -0.12091,0.0263 -0.24623,0.0559 -0.37433,0.0902 -0.0761,-0.0315 -0.15245,-0.0617 -0.22903,-0.0882 -0.9273,-0.32259 -2.18525,-0.37196 -2.61385,-0.38171 -0.49667,-1.86415 -1.89422,-3.03487 -4.29633,-3.14776 v -4.9e-4 c -1.66515,0 -2.88425,0.43295 -4.50074,1.03136 -0.66617,0.24372 -1.30855,0.49044 -2.11098,1.17271 -0.31271,0.26498 -0.63248,0.63974 -0.90675,1.08012 -0.0866,-0.0313 -0.16839,-0.059 -0.23395,-0.0743 -0.54284,-0.12723 -0.89465,-0.13052 -1.2195,-0.13052 h -0.0168 -0.0192 c -1.11481,0.0103 -2.13438,0.22602 -3.20341,0.54523 -0.46606,0.13776 -0.89641,0.26589 -1.3515,0.47135 -1.2513,-0.73202 -2.70944,-1.07421 -4.08602,-1.07421 -0.60372,0 -1.20696,0.0563 -1.80119,0.16352 -0.52761,-1.23041 -1.57104,-2.33127 -2.46757,-2.73994 -1.25999,-0.57436 -2.26057,-0.60877 -3.32457,-0.60877 -1.21531,0 -2.3862,-0.0879 -4.00032,1.04219 -0.27856,0.19336 -0.40374,0.38576 -0.60679,0.57922 -0.53937,-0.5817 -1.16998,-0.97373 -1.72928,-1.19143 -1.09687,-0.43118 -1.78153,-0.44431 -2.54096,-0.44082 z"
       id="path13348" /><g
       id="g1275"
       transform="translate(2.30519,0.88265205)"><rect
         style="display:inline;fill:none;fill-opacity:1;fill-rule:nonzero;stroke:#bd3dbf;stroke-width:1.38033;stroke-linecap:round;stroke-linejoin:round;stroke-dasharray:none;stroke-dashoffset:22.6772;stroke-opacity:1;paint-order:normal"
         id="rect8701"
         width="28.145138"
         height="0.51206529"
         x="198.37242"
         y="338.05835"
         rx="13.936572" /><path
         id="path6252"
         style="color:#000000;font-size:17.6389px;font-family:'Cooper Black';-inkscape-font-specification:'Cooper Black, ';display:inline;fill:#bd3dbf;fill-opacity:1;stroke:none;stroke-width:8;stroke-linecap:butt;stroke-dashoffset:22.6772;-inkscape-stroke:none;paint-order:stroke fill markers"
         d="m 236.28599,337.87019 c -0.19522,0.006 -0.35633,0.0716 -0.48266,0.19792 -0.12057,0.12632 -0.18087,0.28996 -0.18087,0.49093 0,0.18374 0.0689,0.36461 0.20671,0.5426 0.1378,0.17226 0.4048,0.41646 0.80098,0.73226 0.46509,0.37321 0.8932,0.67162 1.28364,0.89555 0.39619,0.21819 0.69155,0.32763 0.88677,0.32763 0.37322,0 1.01665,-0.3359 1.9296,-1.00769 0.49954,-0.36748 0.85266,-0.66335 1.05937,-0.88729 0.21244,-0.22967 0.31832,-0.43638 0.31832,-0.62011 0,-0.17226 -0.0628,-0.32425 -0.18913,-0.45631 -0.12632,-0.13206 -0.27274,-0.19844 -0.43925,-0.19844 -0.23541,0 -0.70912,0.17226 -1.4211,0.51677 -0.21819,0.10335 -0.45935,0.20418 -0.72347,0.30179 -0.26413,0.0919 -0.43639,0.13746 -0.51677,0.13746 -0.20096,0 -0.60881,-0.16364 -1.22318,-0.49093 -0.60289,-0.32154 -1.0391,-0.48214 -1.30896,-0.48214 z m -46.12122,0.59428 c -1.38952,0 -2.56694,0.4048 -3.53156,1.2144 -0.43064,0.35024 -0.7635,0.7667 -0.99891,1.24902 -0.23541,0.47656 -0.35295,0.96749 -0.35295,1.47277 0,1.02205 0.45343,1.935 1.36064,2.73886 0.37322,0.32727 0.77498,0.59984 1.20561,0.81803 0.43064,0.21245 1.05684,0.44804 1.87792,0.70642 0.46509,0.14355 0.80099,0.29857 1.00769,0.46509 0.20671,0.16651 0.31006,0.3646 0.31006,0.59428 0,0.2469 -0.13223,0.45056 -0.39636,0.61133 -0.26412,0.15503 -0.60863,0.23254 -1.03352,0.23254 -0.4938,0 -0.97307,-0.10639 -1.43816,-0.31884 -0.45935,-0.21245 -0.79524,-0.47944 -1.00769,-0.80099 -0.44786,-0.68327 -0.73208,-1.08807 -0.85266,-1.21439 -0.20097,-0.22393 -0.41071,-0.3359 -0.6289,-0.3359 -0.21819,0 -0.39906,0.0922 -0.54261,0.27595 -0.11483,0.14355 -0.17208,0.35583 -0.17208,0.63717 0,0.58567 0.10892,1.18856 0.32711,1.80868 0.22393,0.61437 0.4737,1.0136 0.74931,1.19734 0.36174,0.23542 0.95045,0.44213 1.76578,0.62012 0.81534,0.17226 1.59049,0.25838 2.32544,0.25838 1.64791,0 2.98288,-0.39618 4.00493,-1.18856 0.99907,-0.77514 1.49861,-1.77422 1.49861,-2.99723 0,-1.38378 -0.73208,-2.43201 -2.19624,-3.14399 -0.33303,-0.16078 -1.09399,-0.41612 -2.28255,-0.76636 -0.8785,-0.25264 -1.31775,-0.62856 -1.31775,-1.1281 0,-0.25264 0.0947,-0.45682 0.28422,-0.61185 0.19522,-0.15503 0.4536,-0.23254 0.77515,-0.23254 0.66605,0 1.34341,0.32171 2.03243,0.96479 0.48806,0.4536 0.8042,0.72617 0.94775,0.81804 0.14354,0.0919 0.32998,0.13798 0.55965,0.13798 0.27561,0 0.50815,-0.10893 0.69763,-0.32711 0.19523,-0.22394 0.29301,-0.49702 0.29301,-0.81856 0,-0.55122 -0.21532,-1.13079 -0.64596,-1.73943 -0.42489,-0.60863 -0.82969,-0.91312 -1.21439,-0.91312 -0.10336,0 -0.20114,0.0172 -0.29301,0.0517 -0.28709,0.10335 -0.45934,0.15503 -0.51676,0.15503 -0.0689,0 -0.1606,-0.0172 -0.27544,-0.0517 -0.95888,-0.29283 -1.73403,-0.43925 -2.32544,-0.43925 z m 57.54119,0.24133 c -0.72347,0 -1.83755,0.27814 -3.34191,0.83509 -0.47083,0.17226 -0.80926,0.34756 -1.01596,0.52555 -0.20671,0.17225 -0.31006,0.3673 -0.31006,0.58549 0,0.32731 0.23507,0.52288 0.7059,0.58601 0.25841,0.0345 0.41952,0.14033 0.48266,0.31833 0.0689,0.17799 0.10335,0.58888 0.10335,1.23197 v 1.88619 c 0.006,1.67661 -0.0576,2.91685 -0.18965,3.7207 -0.0345,0.14929 -0.0806,0.25821 -0.13798,0.32711 -0.0574,0.0689 -0.18913,0.16922 -0.39584,0.30128 -0.24116,0.16077 -0.36173,0.35024 -0.36173,0.56844 0,0.19522 0.0689,0.38218 0.2067,0.56017 0.13781,0.17227 0.30398,0.28676 0.4992,0.34416 0.3445,0.0976 1.09129,0.14677 2.23965,0.14677 0.97611,0 1.67627,-0.0892 2.10117,-0.26717 0.4249,-0.178 0.63768,-0.46779 0.63768,-0.86972 0,-0.23541 -0.075,-0.41375 -0.22427,-0.53433 -0.20672,-0.16651 -0.33844,-0.30684 -0.39584,-0.42168 -0.0574,-0.12057 -0.0863,-0.31005 -0.0863,-0.56844 0,-0.28709 0.0117,-0.48266 0.0346,-0.58601 0.023,-0.10335 0.0686,-0.15503 0.13746,-0.15503 0.0574,0 0.12632,0.0461 0.2067,0.13798 0.0861,0.0919 0.31868,0.37912 0.69764,0.86144 l 1.42988,1.83451 c 0.19522,0.25238 0.46779,0.38158 0.81804,0.38758 h 2.79053 c 0.4536,0 0.80977,-0.0861 1.06815,-0.25838 0.26413,-0.17226 0.39636,-0.41089 0.39636,-0.71521 0,-0.28708 -0.20671,-0.54242 -0.62012,-0.76636 -0.26987,-0.14928 -0.48265,-0.29013 -0.63769,-0.42219 -0.14928,-0.13206 -0.35852,-0.36156 -0.62838,-0.68885 -0.41915,-0.49953 -0.87311,-1.0852 -1.36116,-1.757 -0.48231,-0.67753 -0.72347,-1.05649 -0.72347,-1.13688 0,-0.12058 0.20114,-0.31311 0.60307,-0.57723 0.40192,-0.26986 0.72921,-0.42742 0.98185,-0.47335 0.28136,-0.0517 0.44804,-0.0892 0.49971,-0.11214 0.2469,-0.10335 0.37,-0.28422 0.37,-0.5426 0,-0.178 -0.0603,-0.34469 -0.18087,-0.49971 -0.12057,-0.15506 -0.27256,-0.26398 -0.4563,-0.32712 -0.45934,-0.16077 -1.08503,-0.24133 -1.8774,-0.24133 -1.52733,0 -2.29134,0.31006 -2.29134,0.93018 0,0.10909 0.0461,0.2241 0.13798,0.34468 0.12632,0.16654 0.18965,0.28155 0.18965,0.34468 0,0.1091 -0.17834,0.27527 -0.53433,0.4992 -0.356,0.21819 -0.61995,0.32763 -0.7922,0.32763 -0.20095,0 -0.32154,-0.11806 -0.36174,-0.35347 -0.0172,-0.10335 -0.0258,-0.44482 -0.0258,-1.02474 0,-0.52251 0.003,-0.9187 0.009,-1.18856 l 0.0775,-2.69596 c 0.0115,-0.28135 -0.14659,-0.42168 -0.47387,-0.42168 z m 11.51558,0 c -0.62586,0 -1.29766,0.14338 -2.01538,0.43046 -0.70625,0.28136 -1.05937,0.66893 -1.05937,1.16272 0,0.36748 0.16668,0.65474 0.49971,0.86145 0.24689,0.16077 0.57975,0.24081 0.99891,0.24081 0.99333,0 1.84043,-0.20366 2.54093,-0.61133 0.44212,-0.25838 0.66301,-0.60846 0.66301,-1.05058 0,-0.3158 -0.14642,-0.56557 -0.43925,-0.74931 -0.29284,-0.18948 -0.68902,-0.28422 -1.18856,-0.28422 z m -28.54245,1.10226 c -0.14354,0 -0.26412,0.0258 -0.36173,0.0775 l -3.94498,2.48047 c -0.12606,0.0804 -0.19192,0.20654 -0.19792,0.37879 v 0.3793 c 0,0.20099 0.0228,0.33018 0.0687,0.38758 0.0459,0.0517 0.15233,0.0775 0.31884,0.0775 h 0.88729 c 0.13204,0 0.21208,0.0172 0.24081,0.0517 0.0345,0.0287 0.0517,0.10874 0.0517,0.24081 v 3.97909 c 0,0.84979 0.27864,1.53628 0.8356,2.05879 0.55696,0.51676 1.29461,0.77514 2.21331,0.77514 1.15984,0 2.14778,-0.34755 2.96312,-1.04231 0.39045,-0.32729 0.5855,-0.66875 0.5855,-1.02475 0,-0.19522 -0.0572,-0.37608 -0.17209,-0.5426 -0.11483,-0.16651 -0.2415,-0.25011 -0.3793,-0.25011 -0.0861,0 -0.17226,0.0258 -0.25838,0.0775 -0.36748,0.20671 -0.66285,0.31006 -0.88677,0.31006 -0.26413,0 -0.48249,-0.10892 -0.65474,-0.32711 -0.16652,-0.21819 -0.2496,-0.49937 -0.2496,-0.84388 v -2.91145 c 0,-0.16079 0.0284,-0.26971 0.0858,-0.32711 0.0574,-0.0574 0.16686,-0.0863 0.32763,-0.0863 h 1.55856 c 0.21245,0 0.35887,-0.0517 0.43925,-0.15503 0.0804,-0.10909 0.12093,-0.30109 0.12093,-0.57671 v -0.50849 c 0,-0.25264 -0.032,-0.41629 -0.0951,-0.49093 -0.0632,-0.0804 -0.20096,-0.1204 -0.41341,-0.1204 h -1.59318 c -0.17802,0 -0.29555,-0.0258 -0.35295,-0.0775 -0.0517,-0.0517 -0.0775,-0.16364 -0.0775,-0.3359 v -1.16272 c 0,-0.19524 -0.0259,-0.32444 -0.0775,-0.38757 -0.0459,-0.0689 -0.14068,-0.10335 -0.28422,-0.10335 z m -29.43851,2.06706 c -1.13114,0 -2.21634,0.27561 -3.25561,0.82682 -0.37896,0.2067 -0.68041,0.44786 -0.90434,0.72347 -0.21819,0.2756 -0.32711,0.55121 -0.32711,0.82682 0,0.26987 0.0887,0.48823 0.26665,0.65474 0.178,0.16651 0.40801,0.2496 0.68936,0.2496 0.55696,0 1.09095,-0.36478 1.60197,-1.09399 0.20096,-0.27561 0.36713,-0.46509 0.4992,-0.56844 0.1378,-0.10336 0.29283,-0.15503 0.46508,-0.15503 0.28709,0 0.4938,0.1378 0.62012,0.41341 0.12632,0.26986 0.18965,0.70911 0.18965,1.31775 0,0.24115 -0.0431,0.39619 -0.12919,0.46509 -0.0861,0.0631 -0.29587,0.0951 -0.6289,0.0951 -1.49862,0.006 -2.62384,0.37001 -3.37602,1.09347 -0.48232,0.45935 -0.72347,0.98777 -0.72347,1.58492 0,0.37322 0.0892,0.73191 0.26717,1.07642 0.17799,0.33877 0.41915,0.61438 0.72347,0.82682 0.46508,0.32155 1.07355,0.48266 1.82572,0.48266 0.72922,0 1.38074,-0.20975 1.95492,-0.6289 0.18948,-0.14355 0.34199,-0.21549 0.45682,-0.21549 0.10336,0 0.21532,0.075 0.3359,0.22427 0.35025,0.41342 0.82648,0.62012 1.42937,0.62012 0.47083,0 0.92174,-0.12666 1.35237,-0.3793 0.35025,-0.20097 0.63447,-0.45074 0.85266,-0.74931 0.22393,-0.29857 0.3359,-0.58532 0.3359,-0.86093 0,-0.21242 -0.0917,-0.333 -0.27544,-0.36174 -0.18373,-0.0287 -0.30431,-0.0606 -0.36173,-0.0951 -0.0574,-0.0344 -0.11771,-0.11449 -0.18087,-0.24081 -0.12632,-0.26413 -0.18965,-0.84118 -0.18965,-1.73116 l 0.017,-1.28365 c 0,-0.60863 -0.0745,-1.08485 -0.22376,-1.42937 -0.14354,-0.35024 -0.39888,-0.66031 -0.76636,-0.93017 -0.69476,-0.50528 -1.54185,-0.75809 -2.54093,-0.75809 z m 20.34346,0 c -1.5101,0 -2.79339,0.45343 -3.84989,1.36064 -1.01056,0.86127 -1.51619,1.96979 -1.51619,3.32486 0,1.21726 0.41341,2.20469 1.24024,2.96261 0.84978,0.78089 1.96083,1.1715 3.33313,1.1715 1.40674,0 2.65559,-0.41645 3.74654,-1.24902 1.14262,-0.87276 1.7141,-1.93213 1.7141,-3.1781 0,-0.71198 -0.17782,-1.39543 -0.53381,-2.05 -0.34452,-0.62586 -0.80099,-1.13402 -1.36943,-1.52446 -0.79237,-0.54547 -1.71394,-0.81803 -2.76469,-0.81803 z m 19.28358,0 c -0.0919,0 -0.20384,0.0258 -0.3359,0.0775 -0.28134,0.10335 -0.47082,0.15503 -0.56844,0.15503 -0.0861,0 -0.19505,-0.0117 -0.32711,-0.0346 -0.64883,-0.12632 -1.11696,-0.18914 -1.40405,-0.18914 -1.03353,0 -1.8487,0.35312 -2.44584,1.05937 -0.41916,0.49379 -0.62891,1.08198 -0.62891,1.76526 0,0.6316 0.20419,1.18891 0.61185,1.67122 0.41342,0.48231 1.08217,0.94993 2.0066,1.40353 0.44212,0.21245 0.66301,0.44804 0.66301,0.70642 0,0.16651 -0.0573,0.30127 -0.17209,0.40462 -0.11484,0.0976 -0.26682,0.14677 -0.4563,0.14677 -0.17799,0 -0.34468,-0.0461 -0.49971,-0.13798 -0.15503,-0.0976 -0.35008,-0.27291 -0.58549,-0.52555 -0.43064,-0.45935 -0.71486,-0.74052 -0.85266,-0.84388 -0.13207,-0.10909 -0.27849,-0.16381 -0.43925,-0.16381 -0.41342,0 -0.62012,0.26447 -0.62012,0.79272 0,0.32728 0.10031,0.72042 0.30127,1.17977 0.20096,0.4536 0.41933,0.78646 0.65474,0.9989 0.15504,0.13781 0.36731,0.20671 0.63717,0.20671 0.0746,0 0.19522,-0.0112 0.36174,-0.0341 0.0976,-0.0172 0.18374,-0.0258 0.25838,-0.0258 0.0689,0 0.38201,0.0314 0.93896,0.0946 0.59141,0.0747 0.99874,0.11214 1.22267,0.11214 0.87275,0 1.61092,-0.23254 2.21381,-0.69763 0.7005,-0.53399 1.05059,-1.20022 1.05059,-1.99833 0,-0.6316 -0.21837,-1.16559 -0.65474,-1.60197 -0.51676,-0.51676 -1.25999,-0.9935 -2.23036,-1.42988 -0.53973,-0.2469 -0.80977,-0.51086 -0.80977,-0.7922 0,-0.16078 0.0573,-0.29858 0.17208,-0.41342 0.12058,-0.12058 0.26143,-0.18086 0.4222,-0.18086 0.24115,0 0.54564,0.17782 0.91312,0.53381 0.35025,0.33303 0.60255,0.54835 0.75758,0.64596 0.16077,0.0976 0.34163,0.14676 0.5426,0.14676 0.24116,0 0.4423,-0.075 0.60307,-0.22427 0.16077,-0.15503 0.24132,-0.34704 0.24132,-0.57671 0,-0.23542 -0.0689,-0.51406 -0.2067,-0.83561 -0.1378,-0.32154 -0.31614,-0.61742 -0.53434,-0.88729 -0.26986,-0.33876 -0.53686,-0.50797 -0.80098,-0.50797 z m -32.08228,0.0605 c -1.16559,0 -2.01825,0.08 -2.55798,0.24081 -0.53973,0.16077 -0.80977,0.41662 -0.80977,0.76688 0,0.3445 0.21836,0.57958 0.65474,0.7059 0.21819,0.0574 0.3874,0.14355 0.50798,0.25838 0.12632,0.1091 0.25551,0.28996 0.38757,0.5426 l 2.44636,4.64261 c 0.26413,0.4938 0.57114,0.93557 0.92139,1.32602 0.16652,0.19522 0.38488,0.293 0.65474,0.293 0.27561,0 0.534,-0.12919 0.77515,-0.38757 0.24116,-0.26412 0.53399,-0.73225 0.8785,-1.40405 l 2.23035,-4.34082 c 0.2469,-0.48231 0.42777,-0.78375 0.54261,-0.90433 0.12058,-0.12058 0.34451,-0.23255 0.67179,-0.3359 0.41915,-0.13206 0.6289,-0.34434 0.6289,-0.63717 0,-0.50528 -0.58566,-0.7581 -1.757,-0.7581 -0.83256,0 -1.43241,0.0603 -1.79989,0.18087 -0.36173,0.12058 -0.5426,0.31867 -0.5426,0.59428 0,0.17799 0.0973,0.37052 0.29249,0.57723 0.18374,0.18948 0.27595,0.35312 0.27595,0.49092 0,0.17226 -0.0892,0.42507 -0.26717,0.7581 -0.24115,0.4536 -0.40783,0.73477 -0.49971,0.84387 -0.0919,0.1091 -0.2094,0.16382 -0.35295,0.16382 -0.21818,0 -0.45377,-0.22141 -0.70641,-0.66353 -0.25265,-0.4536 -0.37879,-0.77785 -0.37879,-0.97307 0,-0.0976 0.0203,-0.17819 0.0605,-0.24132 0.0402,-0.0632 0.12884,-0.15791 0.26665,-0.28423 0.21819,-0.18948 0.32763,-0.38757 0.32763,-0.59427 0,-0.29284 -0.23255,-0.50815 -0.69763,-0.64596 -0.45935,-0.14354 -1.17725,-0.21497 -2.15336,-0.21497 z m 61.20143,0 c -0.94166,0 -1.65956,0.35565 -2.15335,1.06763 -0.15504,0.21819 -0.30145,0.32763 -0.43925,0.32763 -0.22968,0 -0.34417,-0.1378 -0.34417,-0.41341 0,-0.0344 0.003,-0.075 0.009,-0.12092 0.006,-0.12635 0.009,-0.19778 0.009,-0.21498 0,-0.17225 -0.0603,-0.32171 -0.18087,-0.44803 -0.11484,-0.12632 -0.25873,-0.18966 -0.43098,-0.18966 -0.18948,0 -0.53956,0.0689 -1.05058,0.20671 -0.51102,0.13207 -1.04198,0.29571 -1.59319,0.49093 -0.62586,0.22393 -1.03927,0.41088 -1.24023,0.56017 -0.20096,0.14355 -0.30179,0.32998 -0.30179,0.55965 0,0.22394 0.12362,0.41342 0.37052,0.56845 0.28711,0.17799 0.45936,0.32998 0.51676,0.4563 0.0631,0.12058 0.0946,0.37896 0.0946,0.77514 0,0.71773 -0.0203,1.40422 -0.0605,2.05879 -0.0344,0.55122 -0.0714,0.89825 -0.11162,1.0418 -0.0402,0.13781 -0.13494,0.26143 -0.28422,0.37052 -0.18375,0.13206 -0.3018,0.23541 -0.35347,0.31006 -0.0459,0.0689 -0.0687,0.17225 -0.0687,0.31006 0,0.6603 0.79794,0.99064 2.39417,0.99064 0.99908,0 1.73421,-0.0806 2.20503,-0.24133 0.47084,-0.16077 0.70642,-0.41055 0.70642,-0.74931 0,-0.13207 -0.0314,-0.2496 -0.0946,-0.35295 -0.24116,-0.36173 -0.38505,-0.60594 -0.43098,-0.73226 -0.0402,-0.12632 -0.0605,-0.35886 -0.0605,-0.69763 v -1.70532 c 0,-0.64883 0.0719,-1.0967 0.21549,-1.34359 0.14355,-0.2469 0.4075,-0.37052 0.7922,-0.37052 0.40193,0 0.67754,0.15251 0.82682,0.45682 0.18374,0.37896 0.27595,0.96463 0.27595,1.757 0,1.36656 -0.11501,2.17007 -0.34468,2.41122 -0.1952,0.21247 -0.3097,0.34775 -0.34416,0.40515 -0.0345,0.0517 -0.0522,0.13476 -0.0522,0.24959 0,0.32154 0.16973,0.55409 0.5085,0.69763 0.32729,0.13781 0.88711,0.20671 1.67948,0.20671 1.16559,0 1.97519,-0.0745 2.4288,-0.22376 0.4536,-0.14929 0.68006,-0.41375 0.68006,-0.79272 0,-0.16651 -0.0431,-0.2957 -0.12919,-0.38757 -0.29286,-0.31006 -0.47069,-0.51929 -0.53382,-0.62838 -0.0574,-0.1091 -0.0919,-0.27883 -0.10335,-0.5085 l -0.12041,-3.03134 h -0.001 c -0.0344,-0.70625 -0.12311,-1.24024 -0.26665,-1.60197 -0.14355,-0.36747 -0.39636,-0.68615 -0.7581,-0.95601 -0.51676,-0.37896 -1.13688,-0.56844 -1.86035,-0.56844 z m -9.53378,0.008 c -0.40193,0 -0.97037,0.0861 -1.70533,0.25839 -0.73495,0.17225 -1.42397,0.382 -2.06705,0.6289 -0.46509,0.178 -0.69763,0.44804 -0.69763,0.80977 0,0.30432 0.17834,0.53382 0.53433,0.68885 0.28707,0.12632 0.44767,0.30718 0.48214,0.5426 0.0115,0.0861 0.0287,0.39061 0.0517,0.91312 0.0287,0.51677 0.0429,0.86989 0.0429,1.05937 0,0.5914 -0.037,1.03622 -0.11162,1.3348 -0.0746,0.29857 -0.20131,0.5139 -0.37931,0.64596 -0.2584,0.18947 -0.419,0.32728 -0.48214,0.41341 -0.0631,0.0861 -0.0946,0.2067 -0.0946,0.36173 0,0.18374 0.0603,0.34738 0.18087,0.49093 0.12632,0.14356 0.28997,0.24387 0.49093,0.30127 0.59141,0.16077 1.39239,0.24133 2.40295,0.24133 1.87758,0 2.81637,-0.37034 2.81637,-1.11104 0,-0.1378 -0.0319,-0.24977 -0.0951,-0.3359 -0.0574,-0.0919 -0.17495,-0.20079 -0.35295,-0.32711 -0.21818,-0.15503 -0.3646,-0.32476 -0.43925,-0.5085 -0.0689,-0.18374 -0.10335,-0.47353 -0.10335,-0.86971 v -5.00383 c 0,-0.35599 -0.15807,-0.53434 -0.47387,-0.53434 z m -39.55831,1.92082 c 0.33876,0.0115 0.60323,0.21262 0.79271,0.60306 0.18374,0.38471 0.33877,0.88425 0.46509,1.49862 0.13207,0.61437 0.19792,1.16255 0.19792,1.64486 0,0.64883 -0.25533,0.97307 -0.76636,0.97307 -0.40192,0 -0.69223,-0.23508 -0.87023,-0.7059 -0.17799,-0.45935 -0.33303,-0.98473 -0.46509,-1.57614 -0.12632,-0.59715 -0.18913,-1.06832 -0.18913,-1.41283 0,-0.31006 0.0745,-0.55678 0.22376,-0.74052 0.15502,-0.18948 0.35869,-0.28422 0.61133,-0.28422 z m -20.23132,2.99723 c 0.18374,0.006 0.30736,0.063 0.37052,0.17208 0.0689,0.1091 0.10335,0.32189 0.10335,0.63769 0,0.77515 -0.2295,1.16272 -0.68885,1.16272 -0.21819,0 -0.39348,-0.0836 -0.52555,-0.25011 -0.13206,-0.17226 -0.19792,-0.39619 -0.19792,-0.6718 0,-0.28709 0.0917,-0.53381 0.27544,-0.74052 0.18948,-0.2067 0.41037,-0.31006 0.66301,-0.31006 z" /><path
         id="path6096"
         style="color:#000000;font-size:17.6389px;font-family:'Cooper Black';-inkscape-font-specification:'Cooper Black, ';display:inline;fill:#bd3dbf;fill-opacity:1;stroke:none;stroke-width:8;stroke-linecap:butt;stroke-dashoffset:22.6772;-inkscape-stroke:none;paint-order:stroke fill markers"
         d="m 198.81179,322.4794 c -0.29283,0 -0.65153,0.0289 -1.07642,0.0863 -0.41915,0.0517 -0.75505,0.11449 -1.00769,0.18914 -0.25264,0.0689 -0.45682,0.18695 -0.61185,0.35346 -0.14929,0.16652 -0.22376,0.34991 -0.22376,0.55087 0,0.31006 0.20366,0.56287 0.61133,0.7581 0.18374,0.0919 0.30736,0.16635 0.37052,0.22375 0.0689,0.0574 0.12919,0.14355 0.18087,0.25839 0.14355,0.33302 0.21549,0.96784 0.21549,1.90376 0,0.74643 -0.0233,1.64468 -0.0693,2.69544 -0.0459,1.04501 -0.0946,1.79736 -0.14624,2.25671 -0.0459,0.43064 -0.10318,0.72043 -0.17208,0.86971 -0.0632,0.14929 -0.18983,0.26734 -0.37931,0.35347 -0.29857,0.14355 -0.48501,0.25247 -0.55966,0.32711 -0.0689,0.0689 -0.10335,0.18391 -0.10335,0.34468 0,0.62586 0.69459,0.93845 2.08411,0.93845 1.64791,0 2.4722,-0.3212 2.4722,-0.96428 0,-0.24116 -0.0947,-0.41089 -0.28422,-0.5085 -0.29283,-0.14931 -0.4737,-0.25266 -0.5426,-0.31006 -0.0632,-0.0574 -0.11484,-0.14911 -0.15503,-0.27543 -0.0574,-0.21245 -0.0863,-0.61725 -0.0863,-1.2144 0,-0.57418 0.0203,-1.19987 0.0605,-1.87741 0.0172,-0.30431 0.11754,-0.45681 0.30127,-0.45681 0.17226,0 0.3359,0.17834 0.49093,0.53433 l 1.13688,2.55798 c 0.14929,0.33877 0.33573,0.72634 0.55966,1.16272 0.22967,0.43638 0.37609,0.68868 0.43925,0.75758 0.0976,0.10909 0.20957,0.16381 0.33589,0.16381 0.13207,0 0.25264,-0.0659 0.36174,-0.19792 0.10909,-0.1378 0.25298,-0.40227 0.43098,-0.79271 l 1.03353,-2.31666 c 0.29857,-0.66031 0.52251,-1.09956 0.67179,-1.31775 0.14929,-0.22393 0.30432,-0.33589 0.46509,-0.33589 0.1378,0 0.22697,0.0719 0.26717,0.21549 0.0459,0.14354 0.0687,0.44499 0.0687,0.90433 0,0.82682 -0.0289,1.41249 -0.0863,1.757 -0.0517,0.34451 -0.15199,0.57705 -0.30128,0.69763 -0.28709,0.23542 -0.46543,0.39906 -0.53433,0.49093 -0.0689,0.0861 -0.10335,0.1981 -0.10335,0.3359 0,0.37322 0.26447,0.63717 0.79271,0.7922 0.47657,0.1378 1.20005,0.2067 2.17041,0.2067 0.6316,0 1.09974,-0.0142 1.40406,-0.0429 0.30431,-0.0287 0.5941,-0.089 0.86971,-0.18087 0.53399,-0.16651 0.80099,-0.45073 0.80099,-0.85266 0,-0.22967 -0.10336,-0.41358 -0.31006,-0.55138 -0.29858,-0.19522 -0.48553,-0.34164 -0.56018,-0.43925 -0.0689,-0.0976 -0.12056,-0.28153 -0.15503,-0.55139 -0.1378,-1.10243 -0.20618,-2.38573 -0.20618,-3.8499 0,-1.13687 0.0659,-2.1015 0.19792,-2.89388 0.0689,-0.37896 0.23558,-0.66874 0.49971,-0.86971 0.19524,-0.14355 0.32392,-0.26412 0.38705,-0.36174 0.0631,-0.10334 0.0951,-0.23811 0.0951,-0.40462 0,-0.7407 -0.81264,-1.11105 -2.43758,-1.11105 -0.92444,0 -1.56178,0.12311 -1.91203,0.37001 -0.27561,0.18948 -0.55426,0.57149 -0.83561,1.14566 -0.0459,0.0919 -0.1432,0.28997 -0.29249,0.59428 l -1.21439,2.36833 c -0.12058,0.23542 -0.22698,0.39654 -0.31885,0.48266 -0.0861,0.0861 -0.18643,0.12919 -0.30127,0.12919 -0.13206,0 -0.23542,-0.0405 -0.31006,-0.12092 -0.0746,-0.0804 -0.20992,-0.30127 -0.40514,-0.66301 l -1.79111,-3.2985 c -0.16077,-0.30432 -0.28439,-0.50546 -0.37052,-0.60307 -0.0861,-0.0976 -0.20366,-0.17514 -0.35295,-0.23254 -0.30431,-0.12058 -0.82412,-0.18087 -1.55908,-0.18087 z m 36.14715,0.18087 c -0.72348,0 -1.83704,0.27865 -3.3414,0.83561 -0.47083,0.17225 -0.80977,0.34703 -1.01648,0.52503 -0.2067,0.17225 -0.31006,0.36782 -0.31006,0.58601 0,0.3273 0.23559,0.52236 0.70642,0.58549 0.25841,0.0345 0.41901,0.14085 0.48214,0.31885 0.0689,0.178 0.10335,0.58836 0.10335,1.23145 v 1.88619 c 0.006,1.67661 -0.0576,2.91685 -0.18965,3.7207 -0.0345,0.14929 -0.0801,0.25821 -0.13746,0.32711 -0.0574,0.0689 -0.18965,0.16973 -0.39636,0.30179 -0.24115,0.16077 -0.36173,0.35025 -0.36173,0.56844 0,0.19522 0.0689,0.38166 0.20671,0.55966 0.1378,0.17227 0.30449,0.28728 0.49971,0.34468 0.34451,0.0976 1.09078,0.14624 2.23914,0.14624 0.97611,0 1.67678,-0.0892 2.10168,-0.26716 0.4249,-0.178 0.63717,-0.46779 0.63717,-0.86972 0,-0.23541 -0.0745,-0.41324 -0.22376,-0.53382 -0.20673,-0.16651 -0.33896,-0.30735 -0.39636,-0.42219 -0.0574,-0.12058 -0.0863,-0.31006 -0.0863,-0.56844 0,-0.2871 0.0117,-0.48215 0.0346,-0.5855 0.023,-0.10335 0.0691,-0.15503 0.13798,-0.15503 0.0574,0 0.12632,0.0456 0.20671,0.13746 0.0861,0.0919 0.31866,0.37914 0.69763,0.86145 l 1.42937,1.83451 c 0.19522,0.25238 0.4683,0.38158 0.81855,0.38758 h 2.79053 c 0.45361,0 0.80925,-0.0861 1.06763,-0.25839 0.26413,-0.17225 0.39636,-0.41036 0.39636,-0.71468 0,-0.28709 -0.2067,-0.54295 -0.62011,-0.76688 -0.26987,-0.14929 -0.48215,-0.28961 -0.63717,-0.42168 -0.14929,-0.13206 -0.35904,-0.36208 -0.62891,-0.68936 -0.41915,-0.49954 -0.87258,-1.0852 -1.36064,-1.757 -0.48231,-0.67753 -0.72347,-1.0565 -0.72347,-1.13688 0,-0.12058 0.20062,-0.31259 0.60255,-0.57671 0.40193,-0.26987 0.72921,-0.42794 0.98185,-0.47388 0.28136,-0.0517 0.44805,-0.0892 0.49971,-0.11213 0.2469,-0.10336 0.37052,-0.28423 0.37052,-0.54261 0,-0.178 -0.0603,-0.34416 -0.18086,-0.49919 -0.12058,-0.15505 -0.27308,-0.2645 -0.45682,-0.32763 -0.45935,-0.16077 -1.08504,-0.24081 -1.87741,-0.24081 -1.52732,0 -2.29082,0.31006 -2.29082,0.93017 0,0.1091 0.0456,0.2236 0.13746,0.34417 0.12632,0.16654 0.18966,0.28155 0.18966,0.34468 0,0.1091 -0.17783,0.27579 -0.53382,0.49971 -0.35599,0.2182 -0.62046,0.32711 -0.79272,0.32711 -0.20095,0 -0.32153,-0.11753 -0.36173,-0.35295 -0.0172,-0.10335 -0.0258,-0.44533 -0.0258,-1.02526 0,-0.5225 0.003,-0.91869 0.009,-1.18855 l 0.0775,-2.69545 h -5.2e-4 c 0.0115,-0.28134 -0.14659,-0.42219 -0.47387,-0.42219 z m -18.5167,3.16931 c -1.13115,0 -2.21635,0.27561 -3.25562,0.82683 -0.37896,0.2067 -0.6804,0.44786 -0.90434,0.72347 -0.21818,0.2756 -0.32762,0.55121 -0.32762,0.82682 0,0.26987 0.0892,0.48823 0.26716,0.65474 0.178,0.16651 0.4075,0.2496 0.68885,0.2496 0.55696,0 1.09095,-0.36426 1.60197,-1.09348 0.20097,-0.2756 0.36765,-0.46508 0.49971,-0.56844 0.13781,-0.10335 0.29283,-0.15503 0.46509,-0.15503 0.28709,0 0.4938,0.13781 0.62012,0.41341 0.12631,0.26987 0.18965,0.70912 0.18965,1.31775 0,0.24116 -0.0431,0.39619 -0.12919,0.46509 -0.0861,0.0631 -0.29588,0.0946 -0.62891,0.0946 -1.49861,0.006 -2.62384,0.37001 -3.37602,1.09347 -0.48231,0.45935 -0.72347,0.98777 -0.72347,1.58492 0,0.37321 0.0887,0.73191 0.26665,1.07642 0.178,0.33877 0.41916,0.61438 0.72347,0.82682 0.4651,0.32155 1.07407,0.48266 1.82625,0.48266 0.7292,0 1.38073,-0.20975 1.95492,-0.6289 0.18948,-0.14355 0.34147,-0.21549 0.4563,-0.21549 0.10335,0 0.21532,0.075 0.3359,0.22427 0.35025,0.41342 0.82699,0.62012 1.42988,0.62012 0.47083,0 0.92174,-0.12667 1.35238,-0.37931 0.35025,-0.20096 0.63447,-0.45073 0.85266,-0.7493 0.22393,-0.29858 0.33589,-0.58533 0.33589,-0.86093 0,-0.21242 -0.0922,-0.333 -0.27595,-0.36174 -0.18376,-0.0287 -0.30433,-0.0601 -0.36173,-0.0946 -0.0574,-0.0344 -0.11774,-0.11501 -0.18087,-0.24132 -0.12632,-0.26413 -0.18914,-0.84119 -0.18914,-1.73117 l 0.0171,-1.28312 c 0,-0.60863 -0.0745,-1.08538 -0.22376,-1.42989 -0.14355,-0.35024 -0.39941,-0.66031 -0.76688,-0.93017 -0.69477,-0.50528 -1.54134,-0.7581 -2.54041,-0.7581 z m 44.45,0 c -0.0919,0 -0.20383,0.0258 -0.3359,0.0775 -0.28135,0.10335 -0.47083,0.15503 -0.56844,0.15503 -0.0861,0 -0.19505,-0.0112 -0.32711,-0.0341 -0.64883,-0.12632 -1.11696,-0.18965 -1.40405,-0.18965 -1.03353,0 -1.84869,0.35312 -2.44585,1.05936 -0.41915,0.4938 -0.6289,1.08199 -0.6289,1.76527 0,0.6316 0.20418,1.1889 0.61185,1.67122 0.41341,0.48231 1.08216,0.94992 2.0066,1.40353 0.44212,0.21245 0.663,0.44804 0.663,0.70642 0,0.16651 -0.0572,0.30127 -0.17208,0.40462 -0.11483,0.0976 -0.26681,0.14676 -0.4563,0.14676 -0.17799,0 -0.34469,-0.0461 -0.49971,-0.13797 -0.15504,-0.0976 -0.35008,-0.27291 -0.5855,-0.52555 -0.43064,-0.45935 -0.71486,-0.74052 -0.85266,-0.84388 -0.13206,-0.10909 -0.27848,-0.16381 -0.43925,-0.16381 -0.41341,0 -0.62011,0.26447 -0.62011,0.79271 0,0.32729 0.1003,0.72043 0.30127,1.17978 0.20096,0.4536 0.41933,0.78646 0.65474,0.9989 0.15503,0.13781 0.3673,0.20671 0.63717,0.20671 0.0746,0 0.19522,-0.0112 0.36174,-0.0341 0.0976,-0.0172 0.18374,-0.0258 0.25838,-0.0258 0.0689,0 0.38201,0.0314 0.93896,0.0946 0.59141,0.0747 0.99874,0.11214 1.22266,0.11214 0.87276,0 1.61093,-0.23254 2.21382,-0.69763 0.7005,-0.53399 1.05058,-1.20022 1.05058,-1.99833 0,-0.6316 -0.21836,-1.16559 -0.65474,-1.60197 -0.51676,-0.51677 -1.25998,-0.99351 -2.23035,-1.42989 -0.53973,-0.2469 -0.80977,-0.51085 -0.80977,-0.7922 0,-0.16077 0.0573,-0.29857 0.17208,-0.41341 0.12058,-0.12058 0.26142,-0.18086 0.4222,-0.18086 0.24115,0 0.54564,0.17782 0.91312,0.53381 0.35025,0.33303 0.60254,0.54834 0.75758,0.64596 0.16077,0.0976 0.34164,0.14676 0.5426,0.14676 0.24116,0 0.4423,-0.075 0.60306,-0.22428 0.16078,-0.15502 0.24133,-0.34703 0.24133,-0.57671 0,-0.23542 -0.0689,-0.51406 -0.2067,-0.8356 -0.1378,-0.32154 -0.31615,-0.61742 -0.53434,-0.88729 -0.26986,-0.33876 -0.53686,-0.50798 -0.80098,-0.50798 z m -35.34668,0.0605 c -0.62012,0.006 -1.37196,0.14051 -2.2562,0.40463 -0.66031,0.19523 -1.13148,0.39332 -1.41283,0.59428 -0.28135,0.19523 -0.42168,0.43081 -0.42168,0.70642 0,0.30431 0.20366,0.53686 0.61133,0.69763 0.17228,0.0689 0.28728,0.16059 0.34468,0.27543 0.0574,0.1091 0.0858,0.29301 0.0858,0.55139 0,1.41249 -0.0456,2.38016 -0.13746,2.90267 -0.023,0.15502 -0.0661,0.27813 -0.12919,0.37 -0.0632,0.0861 -0.17817,0.18391 -0.34468,0.29301 -0.34452,0.23541 -0.51677,0.5024 -0.51677,0.80098 0,0.39619 0.23559,0.67484 0.70642,0.83561 0.52824,0.178 1.30035,0.26665 2.31665,0.26665 1.06798,0 1.87758,-0.0572 2.42879,-0.17208 0.27561,-0.0574 0.4965,-0.17243 0.66301,-0.34469 0.16652,-0.17799 0.25012,-0.3847 0.25012,-0.62011 0,-0.38471 -0.25839,-0.65423 -0.77515,-0.80926 -0.23542,-0.0689 -0.39045,-0.1353 -0.46509,-0.19843 -0.0689,-0.0689 -0.12361,-0.18949 -0.16381,-0.36174 -0.0631,-0.3158 -0.0946,-0.90703 -0.0946,-1.77405 0,-0.57992 0.0228,-0.95888 0.0687,-1.13688 0.0517,-0.18374 0.15807,-0.27544 0.31884,-0.27544 0.10336,0 0.21532,0.0603 0.3359,0.18087 0.32154,0.3158 0.57993,0.52503 0.77515,0.62839 0.20096,0.10335 0.44769,0.15502 0.74052,0.15502 0.53399,0 0.98489,-0.17478 1.35237,-0.52503 0.20097,-0.18373 0.36461,-0.41628 0.49093,-0.69763 0.12632,-0.28709 0.18913,-0.56574 0.18913,-0.83561 0,-0.24115 -0.0517,-0.49093 -0.15502,-0.74931 -0.10336,-0.26412 -0.23507,-0.47944 -0.39585,-0.64595 -0.33302,-0.33877 -0.76113,-0.50798 -1.28364,-0.50798 -0.74069,0 -1.34054,0.35869 -1.79989,1.07642 -0.10335,0.16651 -0.21227,0.2496 -0.32711,0.2496 -0.14926,0 -0.23843,-0.12615 -0.26717,-0.37879 -0.0517,-0.46509 -0.11197,-0.7407 -0.18087,-0.82682 -0.0632,-0.0861 -0.24707,-0.1292 -0.55138,-0.1292 z m 21.52375,0.009 c -1.1254,0 -2.25114,0.1231 -3.37654,0.37 -0.66031,0.14354 -0.99012,0.43385 -0.99012,0.87023 0,0.12058 0.0284,0.21532 0.0858,0.28422 0.0632,0.0689 0.20705,0.16061 0.43098,0.27544 0.23542,0.13206 0.39602,0.31597 0.48214,0.55139 0.0919,0.22967 0.13798,0.59141 0.13798,1.0852 v 0.39584 c -0.006,0.33303 -0.009,0.73531 -0.009,1.20613 0,1.26321 0.19252,2.16146 0.57722,2.69544 0.45361,0.63735 1.2318,0.95602 2.33423,0.95602 0.66605,0 1.28869,-0.19809 1.86862,-0.59428 0.29285,-0.20094 0.46815,-0.31543 0.52555,-0.34417 0.0574,-0.0345 0.12074,-0.0517 0.18965,-0.0517 0.18945,0 0.29838,0.17782 0.32711,0.53382 0.0172,0.18376 0.0745,0.30738 0.17209,0.37052 0.10335,0.0631 0.29282,0.0946 0.56844,0.0946 0.67179,0 1.3669,-0.0831 2.08462,-0.24959 1.22301,-0.28135 1.83452,-0.68058 1.83452,-1.19735 0,-0.26412 -0.14085,-0.46526 -0.4222,-0.60306 -0.33303,-0.16077 -0.49971,-0.3386 -0.49971,-0.53382 v -3.79848 c 0.006,-0.39618 0.0144,-0.73208 0.0258,-1.00769 0.006,-0.19525 0.009,-0.32444 0.009,-0.38757 0,-0.61437 -0.29031,-0.92139 -0.87023,-0.92139 -1.03927,0 -2.09255,0.13172 -3.16053,0.39584 -0.5627,0.13781 -0.8444,0.38505 -0.8444,0.74104 0,0.26413 0.16364,0.48197 0.49093,0.65422 0.16079,0.0861 0.27023,0.16365 0.32763,0.23255 0.0574,0.0632 0.0975,0.16651 0.12041,0.31006 0.0631,0.34451 0.0946,0.98794 0.0946,1.92959 0,0.95314 -0.0633,1.56718 -0.18965,1.84279 -0.0632,0.1378 -0.17512,0.25585 -0.3359,0.35346 -0.16077,0.0919 -0.32441,0.13746 -0.49092,0.13746 -0.66031,0 -0.99012,-0.49953 -0.99012,-1.49861 v -4.66794 c 0,-0.28709 -0.16922,-0.43046 -0.50798,-0.43046 z m -31.2043,4.91753 c 0.18377,0.006 0.30739,0.0635 0.37052,0.1726 0.0689,0.10909 0.10335,0.32137 0.10335,0.63717 0,0.77514 -0.23001,1.16272 -0.68936,1.16272 -0.21819,0 -0.39297,-0.0831 -0.52503,-0.2496 -0.13207,-0.17225 -0.19844,-0.39619 -0.19844,-0.67179 0,-0.2871 0.0922,-0.53434 0.27595,-0.74104 0.18948,-0.2067 0.41037,-0.31006 0.66301,-0.31006 z" /></g></g></svg>
