<?xml version="1.0" encoding="UTF-8"?>
<!DOCTYPE svg PUBLIC "-//W3C//DTD SVG 1.1//EN" "http://www.w3.org/Graphics/SVG/1.1/DTD/svg11.dtd">
<!-- Creator: CorelDRAW X8 -->
<svg xmlns="http://www.w3.org/2000/svg" xml:space="preserve" width="90.2mm" height="55.2mm" version="1.1" style="shape-rendering:geometricPrecision; text-rendering:geometricPrecision; image-rendering:optimizeQuality; fill-rule:evenodd; clip-rule:evenodd"
viewBox="0 0 11656 7133"
 xmlns:xlink="http://www.w3.org/1999/xlink">
 <defs>
  <style type="text/css">
   <![CDATA[
    .str0 {stroke:#2B2A29;stroke-width:25.8453}
    .fil0 {fill:#FEFEFE}
    .fil4 {fill:#EF9016}
    .fil5 {fill:#177591}
    .fil1 {fill:#687889}
    .fil3 {fill:#EF9016;fill-rule:nonzero}
    .fil2 {fill:#177591;fill-rule:nonzero}
   ]]>
  </style>
 </defs>
 <g id="Layer_x0020_1">
  <metadata id="CorelCorpID_0Corel-Layer"/>
  <rect class="fil0 str0" x="13" y="13" width="11630" height="7107" rx="1153" ry="1292"/>
  <g id="_2138077043520">
   <path class="fil1" d="M7575 991c-45,0 -77,6 -109,14l0 5 5 0c22,42 59,72 85,109 21,42 40,84 61,127 3,-3 5,-6 5,-6 38,-26 56,-68 56,-132 -16,-19 -18,-37 -32,-56 -16,-26 -50,-39 -71,-61z"/>
   <path class="fil2" d="M3359 6222l-368 0c-13,-619 -48,-1202 -107,-1748l-3 0 -559 1748 -279 0 -556 -1748 -3 0c-41,524 -67,1107 -78,1748l-335 0c22,-780 76,-1511 163,-2193l455 0 529 1612 3 0 533 -1612 436 0c95,799 151,1530 169,2193z"/>
   <path class="fil2" d="M4951 4604c-150,811 -347,1401 -592,1768 -190,284 -399,425 -627,425 -60,0 -135,-18 -224,-54l0 -196c43,7 94,10 153,10 106,0 191,-29 256,-88 78,-71 117,-151 117,-240 0,-61 -30,-185 -91,-374l-403 -1251 361 0 289 936c65,212 92,361 81,445 159,-422 269,-883 332,-1381l348 0z"/>
   <polygon class="fil3" points="9837,6222 8794,6222 8794,4029 9145,4029 9145,5952 9837,5952 "/>
   <path class="fil4" d="M7215 5784c-89,-143 -133,-373 -133,-689 0,-552 168,-829 504,-829 175,0 304,66 386,198 89,143 134,371 134,683 0,556 -168,835 -504,835 -176,0 -304,-66 -387,-198zm1306 491l-403 -199c36,-29 70,-61 101,-98 171,-201 257,-499 257,-893 0,-726 -285,-1089 -855,-1089 -279,0 -497,92 -653,277 -171,201 -256,498 -256,890 0,386 75,668 227,848 139,162 348,244 627,244 105,0 200,-13 287,-39l525 306 143 -247z"/>
   <path class="fil3" d="M6559 5614c0,186 -69,339 -205,459 -136,118 -319,178 -549,178 -214,0 -422,-69 -624,-205l95 -188c173,87 330,130 471,130 132,0 235,-30 310,-88 74,-58 119,-140 119,-243 0,-130 -91,-242 -257,-335 -154,-85 -462,-261 -462,-261 -166,-121 -250,-252 -250,-467 0,-177 63,-321 187,-430 125,-110 286,-164 483,-164 203,0 388,54 555,162l-85 188c-142,-60 -283,-90 -422,-90 -112,0 -199,27 -260,81 -60,54 -98,123 -98,208 0,130 93,242 264,338 156,84 471,264 471,264 171,121 257,250 257,463z"/>
   <path class="fil5" d="M10278 3294c-212,-5 -377,16 -514,75 -40,15 -104,15 -109,66 21,21 24,55 42,85 32,53 88,124 138,161 56,43 111,85 170,122 103,64 220,101 320,164 59,38 117,85 175,125 29,21 48,56 85,69l0 -8c-19,-24 -24,-58 -42,-85 -27,-26 -53,-50 -80,-77 -77,-103 -172,-193 -275,-267 -85,-59 -271,-138 -305,-236 0,0 -3,-3 -6,-5 59,-6 128,-27 183,-43 90,-24 173,-19 265,-42 43,-11 85,-24 128,-37l0 -24c-48,-48 -83,-112 -133,-157 -135,-116 -283,-230 -437,-326 -82,-53 -188,-87 -276,-132 -32,-16 -84,-24 -103,-51 -48,-58 -74,-135 -109,-204 -77,-145 -151,-307 -217,-461 -48,-103 -77,-206 -135,-302 -273,-450 -570,-723 -1026,-991 -98,-56 -214,-79 -339,-109 -66,-2 -132,-8 -199,-10 -42,-19 -85,-69 -122,-93 -151,-95 -540,-302 -652,-29 -71,172 106,342 167,429 45,61 104,130 135,199 19,45 24,93 43,140 42,117 82,247 138,356 29,55 61,114 98,164 21,29 58,42 66,90 -37,53 -40,132 -61,199 -95,299 -58,670 77,890 42,66 143,212 278,156 119,-47 93,-198 127,-331 8,-32 3,-53 19,-74l0 5c37,75 74,146 109,220 82,130 225,265 344,355 64,48 114,130 193,159l0 -8 -5 0c-16,-23 -40,-34 -61,-52 -47,-48 -100,-107 -138,-160 -111,-148 -209,-312 -296,-482 -43,-82 -80,-172 -114,-254 -16,-32 -16,-80 -43,-96 -40,59 -98,109 -127,180 -50,114 -55,255 -74,401 -11,2 -5,0 -11,5 -84,-21 -114,-109 -145,-183 -80,-188 -93,-490 -24,-707 18,-56 98,-231 66,-284 -16,-50 -69,-79 -98,-119 -34,-51 -72,-114 -95,-170 -64,-148 -96,-313 -165,-461 -32,-69 -87,-140 -132,-204 -51,-72 -106,-122 -146,-207 -13,-29 -32,-77 -11,-108 6,-21 16,-29 38,-35 34,-29 132,8 166,24 98,40 181,77 263,132 37,27 77,77 124,91l56 0c85,18 180,5 260,29 140,45 267,111 381,183 347,220 634,532 827,906 32,61 45,117 74,180 56,130 125,263 180,390 56,124 109,251 189,355 39,55 198,85 270,114 53,24 135,45 183,74 90,55 180,119 265,180 42,32 175,98 183,151z"/>
   <path class="fil3" d="M10088 6222l58 0 0 -223 76 0 0 -46 -213 0 0 46 79 0 0 223zm442 0l55 0 0 -269 -82 0 -67 183 -74 -183 -79 0 0 269 52 0 0 -204 3 0 76 204 40 0 76 -204 0 204z"/>
  </g>
 </g>
</svg>
