<?xml version="1.0" encoding="UTF-8"?>
<!DOCTYPE svg PUBLIC "-//W3C//DTD SVG 1.1//EN" "http://www.w3.org/Graphics/SVG/1.1/DTD/svg11.dtd">
<!-- Creator: CorelDRAW X8 -->
<svg xmlns="http://www.w3.org/2000/svg" xml:space="preserve" width="90mm" height="55mm" version="1.1" style="shape-rendering:geometricPrecision; text-rendering:geometricPrecision; image-rendering:optimizeQuality; fill-rule:evenodd; clip-rule:evenodd"
viewBox="0 0 4263 2605"
 xmlns:xlink="http://www.w3.org/1999/xlink">
 <defs>
  <style type="text/css">
   <![CDATA[
    .fil0 {fill:none}
    .fil1 {fill:#FEFEFE}
    .fil4 {fill:#656565}
    .fil3 {fill:url(#id0)}
    .fil2 {fill:url(#id1)}
   ]]>
  </style>
  <linearGradient id="id0" gradientUnits="userSpaceOnUse" x1="2503.36" y1="369.298" x2="3193.72" y2="-285.357">
   <stop offset="0" style="stop-opacity:1; stop-color:#FFE052"/>
   <stop offset="1" style="stop-opacity:1; stop-color:#FFC331"/>
  </linearGradient>
  <linearGradient id="id1" gradientUnits="userSpaceOnUse" x1="2098.66" y1="785.894" x2="2753.31" y2="131.244">
   <stop offset="0" style="stop-opacity:1; stop-color:#387EB8"/>
   <stop offset="1" style="stop-opacity:1; stop-color:#366994"/>
  </linearGradient>
 </defs>
 <g id="Layer_x0020_1">
  <metadata id="CorelCorpID_0Corel-Layer"/>
  <rect class="fil0" width="4263" height="2605" rx="423" ry="474"/>
  <rect class="fil1" x="829" width="2605" height="2605" rx="258" ry="474"/>
  <g id="_1954647382368">
   <g>
    <path class="fil2" d="M2004 118c-309,0 -313,120 -313,145 0,38 0,150 0,150l319 0 0 45c0,0 -332,0 -445,0 -95,0 -214,58 -214,312 0,235 93,325 187,325 27,0 111,0 111,0 0,0 0,-116 0,-156 0,-65 32,-186 183,-186 190,0 238,0 316,0 46,0 177,-21 177,-172 0,-160 0,-213 0,-288 0,-38 -6,-175 -321,-175zm-176 101c32,0 57,26 57,58 0,31 -25,57 -57,57 -32,0 -57,-26 -57,-57 0,-32 25,-58 57,-58z"/>
    <path class="fil3" d="M2008 1428c309,0 313,-123 313,-145 0,-37 0,-150 0,-150l-319 0 0 -45c0,0 334,0 445,0 95,0 214,-59 214,-312 0,-278 -126,-325 -187,-325 -28,0 -111,0 -111,0 0,0 0,122 0,156 0,66 -31,187 -183,187 -190,0 -232,0 -316,0 -46,0 -178,22 -178,171 0,172 0,217 0,288 0,63 38,175 322,175zm176 -101c-32,0 -58,-26 -58,-57 0,-32 26,-58 58,-58 31,0 57,26 57,58 0,31 -26,57 -57,57z"/>
   </g>
   <path class="fil4" d="M1301 2142c0,-94 -27,-141 -81,-143 -22,-1 -42,4 -62,10 -17,5 -27,12 -32,17l0 222c34,22 64,32 91,30 55,-5 84,-50 84,-136zm66 3c0,48 -10,86 -34,118 -25,36 -59,54 -104,54 -34,2 -67,-10 -103,-32l0 202 -57 -20 0 -449c10,-12 22,-22 35,-31 34,-20 76,-30 123,-30 44,0 79,19 103,54 25,39 37,81 37,134l0 0zm348 133c0,64 -7,108 -19,131 -13,24 -37,44 -72,59 -30,12 -61,19 -94,19l-11 -36c36,-5 59,-10 73,-13 27,-10 47,-23 57,-44 8,-15 12,-45 12,-89l0 -15c-39,19 -81,27 -123,27 -29,0 -54,-8 -74,-27 -24,-18 -35,-44 -35,-74l0 -237 57 -20 0 239c0,25 8,45 25,59 17,13 37,20 64,20 27,0 54,-10 84,-31l0 -279 57 0 -1 311zm222 37l-19 0c-32,0 -57,-8 -76,-23 -18,-15 -27,-37 -27,-64l0 -225 -38 0 0 -36 38 0 0 -96 58 -20 0 116 63 0 0 36 -63 0 0 221c0,22 5,37 16,46 11,7 26,12 48,13l0 32zm346 -5l-57 0 0 -220c0,-22 -5,-42 -15,-57 -12,-19 -29,-27 -51,-27 -27,0 -59,13 -97,42l0 264 -57 0 0 -526 57 -19 0 239c37,-27 75,-40 119,-40 30,0 54,10 74,30 19,20 29,45 29,76l-2 238zm303 -178c0,-35 -7,-66 -21,-89 -16,-29 -40,-44 -75,-45 -63,3 -95,48 -95,134 0,40 7,72 21,99 16,34 42,51 75,51 63,-2 95,-51 95,-150zm62 0c0,50 -14,94 -39,128 -28,37 -69,57 -118,57 -50,0 -89,-19 -117,-57 -26,-34 -39,-76 -39,-128 0,-49 14,-89 42,-121 30,-35 67,-52 114,-52 48,0 86,17 116,52 27,34 41,74 41,121zm328 178l-58 0 0 -232c0,-25 -8,-45 -23,-59 -15,-13 -35,-22 -62,-20 -27,0 -54,10 -78,27l0 288 -57 0 0 -295c32,-23 63,-40 91,-47 27,-7 49,-10 69,-10 14,0 27,2 39,3 22,5 40,16 54,29 15,15 23,35 23,57l2 259z"/>
   <path class="fil4" d="M3085 1917l10 0 0 -62 23 0 0 -9 -57 0 0 9 24 0 0 62zm44 0l8 0 0 -57 18 57 11 0 18 -57 0 57 10 0 0 -71 -12 0 -21 61 -19 -61 -13 0 0 71z"/>
  </g>
 </g>
</svg>
