<?xml version="1.0" encoding="UTF-8"?>
<!DOCTYPE svg PUBLIC "-//W3C//DTD SVG 1.1//EN" "http://www.w3.org/Graphics/SVG/1.1/DTD/svg11.dtd">
<!-- Creator: CorelDRAW X8 -->
<svg xmlns="http://www.w3.org/2000/svg" xml:space="preserve" width="90.2mm" height="55.2mm" version="1.1" style="shape-rendering:geometricPrecision; text-rendering:geometricPrecision; image-rendering:optimizeQuality; fill-rule:evenodd; clip-rule:evenodd"
viewBox="0 0 2626 1607"
 xmlns:xlink="http://www.w3.org/1999/xlink">
 <defs>
  <style type="text/css">
   <![CDATA[
    .str1 {stroke:#00D8FF;stroke-width:12.8079}
    .str0 {stroke:#2B2A29;stroke-width:5.82311}
    .fil2 {fill:none}
    .fil0 {fill:#FEFEFE}
    .fil1 {fill:#00D8FF}
   ]]>
  </style>
 </defs>
 <g id="Layer_x0020_1">
  <metadata id="CorelCorpID_0Corel-Layer"/>
  <rect class="fil0 str0" x="3" y="3" width="2620" height="1601" rx="260" ry="291"/>
  <g id="_2290836850416">
   <g>
    <circle class="fil1" cx="574" cy="803" r="79"/>
    <g>
     <path class="fil2 str1" d="M574 641c107,0 206,16 281,41 90,31 145,78 145,121 0,44 -58,94 -155,126 -73,24 -169,37 -271,37 -103,0 -202,-12 -276,-37 -93,-32 -150,-83 -150,-126 0,-42 53,-89 142,-120 75,-26 177,-42 284,-42l0 0z"/>
     <path class="fil2 str1" d="M434 723c53,-93 116,-171 175,-223 72,-63 141,-87 178,-66 38,22 52,98 31,198 -15,75 -52,165 -103,253 -52,90 -111,169 -170,220 -74,65 -146,89 -184,67 -37,-21 -51,-90 -33,-182 15,-78 52,-174 106,-267l0 0z"/>
     <path class="fil2 str1" d="M434 885c-54,-92 -90,-186 -105,-263 -18,-94 -5,-165 31,-187 39,-22 111,4 187,72 58,51 117,128 168,215 52,90 91,181 106,258 19,97 4,171 -34,193 -36,21 -103,-2 -174,-63 -61,-52 -125,-132 -179,-225l0 0z"/>
    </g>
   </g>
   <path class="fil1" d="M1457 1006l-98 -147c49,-5 94,-40 94,-105 0,-67 -47,-109 -113,-109l-145 0 0 361 45 0 0 -144 72 0 92 144 53 0zm-123 -183l-94 0 0 -138 94 0c43,0 72,28 72,69 0,40 -29,69 -72,69l0 0zm290 189c42,0 78,-14 104,-40l-20 -26c-21,21 -51,33 -81,33 -56,0 -90,-41 -94,-91l212 0 0 -10c0,-78 -47,-140 -126,-140 -74,0 -128,61 -128,137 0,82 55,137 133,137l0 0zm81 -153l-172 0c3,-40 30,-87 86,-87 59,0 85,48 86,87zm309 147l0 -180c0,-63 -46,-88 -101,-88 -43,0 -76,14 -104,43l19 28c23,-24 48,-36 80,-36 38,0 66,20 66,55l0 47c-21,-24 -51,-35 -87,-35 -44,0 -91,27 -91,86 0,57 47,86 91,86 35,0 65,-12 87,-36l0 30 40 0zm-112 -23c-38,0 -65,-24 -65,-57 0,-33 27,-57 65,-57 28,0 56,11 72,32l0 50c-16,21 -44,32 -72,32l0 0zm308 29c48,0 76,-19 96,-45l-27 -25c-17,23 -39,34 -66,34 -56,0 -90,-43 -90,-101 0,-58 34,-101 90,-101 27,0 49,11 66,34l27 -24c-20,-26 -48,-46 -96,-46 -77,0 -130,60 -130,137 0,78 53,137 130,137l0 0zm219 0c24,0 38,-7 49,-16l-12 -31c-6,6 -16,11 -28,11 -18,0 -26,-14 -26,-33l0 -163 53 0 0 -35 -53 0 0 -72 -41 0 0 72 -43 0 0 35 43 0 0 171c0,39 20,61 58,61l0 0z"/>
  </g>
 </g>
</svg>
