<?xml version="1.0" encoding="UTF-8"?>
<!DOCTYPE svg PUBLIC "-//W3C//DTD SVG 1.1//EN" "http://www.w3.org/Graphics/SVG/1.1/DTD/svg11.dtd">
<!-- Creator: CorelDRAW X8 -->
<svg xmlns="http://www.w3.org/2000/svg" xml:space="preserve" width="90.2mm" height="55.2mm" version="1.1" style="shape-rendering:geometricPrecision; text-rendering:geometricPrecision; image-rendering:optimizeQuality; fill-rule:evenodd; clip-rule:evenodd"
viewBox="0 0 4278 2618"
 xmlns:xlink="http://www.w3.org/1999/xlink"
 xmlns:dc="http://purl.org/dc/elements/1.1/"
 xmlns:cc="http://creativecommons.org/ns#"
 xmlns:rdf="http://www.w3.org/1999/02/22-rdf-syntax-ns#"
 xmlns:svg="http://www.w3.org/2000/svg"
 xmlns:sodipodi="http://sodipodi.sourceforge.net/DTD/sodipodi-0.dtd"
 xmlns:inkscape="http://www.inkscape.org/namespaces/inkscape"
 inkscape:version="0.91 r13725"
 sodipodi:docname="WordPress logo.svg">
 <defs>
  <style type="text/css">
   <![CDATA[
    .str0 {stroke:#2B2A29;stroke-width:9.48475}
    .fil0 {fill:#FEFEFE}
    .fil1 {fill:#21759A}
    .fil2 {fill:#464646}
   ]]>
  </style>
 </defs>
 <g id="Layer_x0020_1">
  <metadata id="CorelCorpID_0Corel-Layer"/>
  <rect class="fil0 str0" x="5" y="5" width="4268" height="2608" rx="399" ry="447"/>
  <g id="_1954864444736">
   <sodipodi:namedview id="base" pagecolor="#ffffff" bordercolor="#666666" borderopacity="1.0" inkscape:pageopacity="0.0" inkscape:pageshadow="2" inkscape:zoom="0.98994949" inkscape:cx="231.36448" inkscape:cy="112.57668" inkscape:document-units="px" inkscape:current-layer="layer1" showgrid="false" fit-margin-top="0" fit-margin-left="0" fit-margin-right="0" fit-margin-bottom="0" inkscape:window-width="1366" inkscape:window-height="705" inkscape:window-x="-8" inkscape:window-y="-8" inkscape:window-maximized="1"/>
   <g id="layer1" inkscape:label="Capa 1" inkscape:groupmode="layer">
    <g id="g4207">
     <path id="path4187" class="fil1" d="M1586 2263c39,-46 11,-107 -53,-116l-37 -4 0 74 0 74 36 -4c27,-3 41,-9 54,-24l0 0zm435 159c42,-21 61,-63 61,-132 0,-53 -24,-105 -57,-124 -13,-7 -44,-15 -71,-18l-47 -5 0 141c0,126 1,142 13,149 16,10 73,4 101,-11zm-677 42c0,-12 5,-15 23,-15 40,0 46,-19 46,-158 0,-113 -1,-125 -15,-139 -9,-8 -24,-15 -35,-15 -14,0 -19,-4 -19,-16 0,-15 3,-15 128,-13 114,2 130,4 159,20 72,38 75,134 7,176 -14,8 -32,16 -40,16 -18,0 81,101 116,117 33,16 82,15 95,-1 8,-9 11,-44 11,-145 0,-122 -2,-133 -15,-143 -8,-6 -25,-11 -36,-11 -17,0 -22,-3 -22,-15 0,-15 5,-15 120,-15 135,0 193,10 241,44 94,65 91,223 -5,288 -52,35 -92,40 -293,40l-181 0 -60 -76c-33,-42 -63,-76 -66,-76 -4,0 -7,20 -7,44 0,54 15,78 46,78 18,0 23,3 23,15 0,15 -5,15 -110,15 -106,0 -111,0 -111,-15l0 0zm-161 -35c74,-54 74,-217 0,-270 -33,-24 -99,-28 -135,-8 -40,22 -69,81 -69,142 0,61 30,121 69,143 35,18 105,15 135,-7zm-131 59c-68,-18 -138,-80 -155,-136 -29,-98 20,-195 120,-240 50,-23 135,-22 188,2 44,19 96,70 113,111 15,36 14,107 -3,144 -17,37 -73,90 -113,107 -33,14 -117,21 -150,12l0 0zm-650 -189c-81,-254 -89,-268 -140,-268 -15,0 -20,-4 -20,-15 0,-15 5,-16 122,-16 116,0 121,1 121,16 0,11 -5,15 -22,15 -20,0 -46,16 -46,29 0,3 18,61 39,129 30,93 42,121 47,111 4,-7 28,-76 54,-154 64,-191 62,-192 126,4 27,83 51,153 53,156 3,3 23,-51 46,-120 46,-139 46,-150 -3,-154 -21,-2 -28,-5 -28,-17 0,-14 7,-15 107,-15 101,0 106,1 106,16 0,12 -5,15 -27,15 -50,0 -61,19 -139,253 -55,163 -74,211 -83,209 -8,-2 -27,-51 -60,-154 -27,-84 -52,-155 -55,-158 -3,-3 -29,66 -58,154 -39,118 -56,159 -64,159 -10,0 -28,-48 -76,-195l0 0z" inkscape:connector-curvature="0"/>
     <path id="path4179" class="fil2" d="M2838 2279c56,-24 50,-110 -9,-126 -63,-18 -63,-17 -63,64l0 72 23 0c13,0 35,-5 49,-10l0 0zm-224 185c0,-12 5,-15 22,-15 12,0 28,-5 34,-11 15,-16 23,-97 18,-192 -4,-88 -14,-109 -52,-109 -17,0 -22,-3 -22,-16 0,-15 2,-16 131,-13 138,3 150,6 190,43 52,49 24,149 -47,165l-23 5 36 42c68,78 138,108 165,69 9,-14 12,-41 12,-141 0,-113 -2,-125 -16,-139 -8,-8 -23,-15 -34,-15 -14,0 -19,-4 -19,-15 0,-15 5,-15 163,-15l163 0 5 53c3,30 3,56 1,58 -9,10 -26,-5 -30,-27 -6,-29 -20,-36 -91,-43l-59 -5 0 62 0 62 33 -5c35,-5 51,-20 51,-46 0,-13 4,-18 15,-18 14,0 15,5 15,87 0,83 -1,88 -15,88 -12,0 -15,-5 -15,-23 0,-27 -24,-46 -59,-46l-25 0 0 49c0,69 14,85 74,84 67,-1 84,-7 95,-38 6,-17 14,-26 24,-26 12,0 14,4 10,24 -3,13 -5,37 -5,53l0 29 -230 0 -230 0 -60 -76c-32,-42 -62,-76 -66,-76 -15,0 0,104 17,115 6,4 20,7 31,7 16,0 21,4 21,15 0,15 -5,15 -114,15 -109,0 -114,0 -114,-15l0 0zm-153 -246c57,-30 57,-132 0,-161 -12,-6 -38,-11 -60,-11l-38 0 0 91 0 91 38 0c22,0 48,-4 60,-10zm-273 246c0,-12 5,-15 23,-15 15,0 30,-7 41,-18 16,-15 19,-29 24,-93 3,-42 4,-118 1,-170 -5,-111 -15,-132 -61,-136 -22,-2 -28,-5 -28,-17 0,-15 4,-16 154,-13 154,2 154,2 191,24 62,37 82,106 49,172 -26,51 -79,76 -160,76l-60 0 2 73c3,66 5,74 21,87 10,8 28,15 40,15 17,0 22,3 22,15 0,15 -5,15 -130,15 -124,0 -129,0 -129,-15l0 0zm1574 -49c0,-74 1,-80 14,-80 11,0 17,7 20,23 6,28 36,65 65,80 48,24 106,6 106,-34 0,-27 -21,-46 -91,-81 -63,-31 -87,-50 -103,-81 -24,-45 -4,-108 40,-130 43,-22 75,-22 145,-1 12,4 17,2 17,-7 0,-7 6,-12 15,-12 14,0 15,5 15,68 0,61 -1,68 -14,68 -8,0 -17,-9 -23,-26 -20,-57 -88,-84 -123,-50 -31,32 -14,54 78,97 84,40 113,71 113,125 0,69 -41,110 -117,118 -31,3 -49,1 -77,-12 -37,-16 -50,-15 -50,4 0,6 -7,10 -15,10 -14,0 -15,-5 -15,-79l0 0zm-335 0c0,-75 1,-80 16,-80 9,0 15,5 15,13 0,25 34,73 60,87 54,28 115,10 115,-34 0,-25 -23,-43 -103,-84 -80,-41 -103,-67 -103,-120 0,-40 18,-68 56,-88 31,-16 94,-16 125,-1 23,12 24,12 29,-2 2,-8 11,-14 19,-14 13,0 15,5 15,68 0,62 -2,68 -15,68 -10,0 -17,-8 -23,-26 -12,-35 -48,-65 -79,-65 -54,0 -77,46 -37,75 11,8 48,28 81,45 80,40 97,59 101,110 4,50 -17,85 -66,110 -42,21 -85,22 -128,2 -35,-15 -47,-14 -47,5 0,6 -7,10 -15,10 -15,0 -16,-5 -16,-79l0 0z" inkscape:connector-curvature="0"/>
     <path id="path4165" class="fil2" d="M1829 1021c-70,-207 -127,-381 -127,-386 0,-5 18,-10 42,-12 49,-4 73,-21 56,-41 -8,-10 -25,-11 -134,-6 -68,3 -124,2 -124,-1 0,-13 49,-73 100,-123 132,-129 307,-200 493,-200 84,0 147,11 235,40 70,23 181,85 223,125l21 21 -33 9c-43,13 -77,48 -88,90 -11,43 3,87 53,171 89,150 89,209 4,489 -31,105 -59,191 -61,194 -2,2 -6,-1 -8,-7 -11,-32 -255,-754 -255,-757 0,-1 15,-3 33,-3 52,-2 70,-9 70,-30l0 -19 -207 0c-163,-1 -208,1 -211,9 -8,20 5,32 40,37 20,2 41,5 46,6 7,1 33,60 67,153l56 151 -78 235c-43,128 -80,234 -82,234 -2,0 -61,-171 -131,-379l0 0zm656 552c0,-1 52,-151 115,-333 142,-408 152,-443 152,-547 1,-69 2,-77 11,-65 18,25 54,127 67,188 14,67 16,202 4,269 -26,148 -106,294 -214,394 -58,54 -135,107 -135,94zm-730 -12c-168,-108 -284,-281 -319,-476 -13,-71 -10,-197 7,-275 13,-67 42,-146 50,-139 3,4 338,919 338,924 0,9 -27,-3 -76,-34l0 0zm285 104c-78,-10 -112,-21 -107,-34 2,-6 49,-141 104,-301 55,-160 102,-296 106,-303 5,-9 8,-6 15,12 34,88 213,583 213,588 0,16 -174,48 -247,45 -17,0 -55,-4 -84,-7l0 0zm228 65c396,-69 687,-451 643,-843 -22,-197 -93,-343 -236,-483 -149,-147 -331,-222 -540,-222 -144,0 -279,38 -404,112 -78,47 -197,162 -246,238 -184,286 -172,630 31,901 173,230 468,347 752,297zm-280 46c-168,-32 -315,-109 -435,-228 -319,-318 -326,-831 -16,-1157 119,-125 273,-210 438,-241 82,-16 238,-16 320,0 300,57 549,285 634,582 113,394 -76,806 -448,980 -104,49 -193,69 -323,72 -77,2 -129,0 -170,-8l0 0z" inkscape:connector-curvature="0"/>
    </g>
   </g>
  </g>
 </g>
</svg>
